<?xml version="1.0" standalone="no"?>
 <!DOCTYPE svg PUBLIC "-//W3C//DTD SVG 1.1//EN" 
 "http://www.w3.org/Graphics/SVG/1.1/DTD/svg11.dtd"> 
<svg xmlns="http://www.w3.org/2000/svg" version="1.1" 
    width="27.94cm" height="21.59cm" viewBox="0 0 110000 85000 ">
<title>SVG Picture created as NixiePowerSupply-F.SilkS.svg date 2017/05/06 16:39:10 </title>
  <desc>Picture generated by PCBNEW </desc>
<g style="fill:#000000; fill-opacity:1;stroke:#000000; stroke-opacity:1;
stroke-linecap:round; stroke-linejoin:round; "
 transform="translate(0 0) scale(1 1)">
</g>
<g style="fill:#000000; fill-opacity:0.0; 
stroke:#000000; stroke-width:-0.000393701; stroke-opacity:1; 
stroke-linecap:round; stroke-linejoin:round;">
</g>
<g style="fill:#000000; fill-opacity:0.0; 
stroke:#000000; stroke-width:75; stroke-opacity:1; 
stroke-linecap:round; stroke-linejoin:round;">
<path d="M27982 23768
L28039 23768
L28068 23783
L28096 23811
L28111 23868
L28111 23968
L28096 24025
L28068 24054
L28039 24068
L27982 24068
L27954 24054
L27925 24025
L27911 23968
L27911 23868
L27925 23811
L27954 23783
L27982 23768
" />
<path d="M28239 23768
L28239 24011
L28254 24040
L28268 24054
L28296 24068
L28354 24068
L28382 24054
L28396 24040
L28411 24011
L28411 23768
" />
<path d="M28511 23768
L28682 23768
" />
<path d="M28596 24068
L28596 23768
" />
<path d="M28782 24068
L28782 23768
L28896 23768
L28925 23783
L28939 23797
L28954 23825
L28954 23868
L28939 23897
L28925 23911
L28896 23925
L28782 23925
" />
<path d="M29082 23768
L29082 24011
L29096 24040
L29111 24054
L29139 24068
L29196 24068
L29225 24054
L29239 24040
L29254 24011
L29254 23768
" />
<path d="M29354 23768
L29525 23768
" />
<path d="M29439 24068
L29439 23768
" />
<path d="M27954 24508
L28096 24508
" />
<path d="M27925 24593
L28025 24293
L28125 24593
" />
<path d="M28225 24593
L28225 24293
L28296 24293
L28339 24308
L28368 24336
L28382 24365
L28396 24422
L28396 24465
L28382 24522
L28368 24550
L28339 24579
L28296 24593
L28225 24593
" />
<path d="M28611 24293
L28611 24508
L28596 24550
L28568 24579
L28525 24593
L28496 24593
" />
<path d="M28754 24293
L28754 24536
L28768 24565
L28782 24579
L28811 24593
L28868 24593
L28896 24579
L28911 24565
L28925 24536
L28925 24293
" />
<path d="M29054 24579
L29096 24593
L29168 24593
L29196 24579
L29211 24565
L29225 24536
L29225 24508
L29211 24479
L29196 24465
L29168 24450
L29111 24436
L29082 24422
L29068 24408
L29054 24379
L29054 24350
L29068 24322
L29082 24308
L29111 24293
L29182 24293
L29225 24308
" />
<path d="M29311 24293
L29482 24293
" />
<path d="M29396 24593
L29396 24293
" />
<path d="M27761 25118
L27589 25118
" />
<path d="M27675 25118
L27675 24818
L27646 24861
L27618 24890
L27589 24904
" />
<path d="M28032 24818
L27889 24818
L27875 24961
L27889 24947
L27918 24933
L27989 24933
L28018 24947
L28032 24961
L28046 24990
L28046 25061
L28032 25090
L28018 25104
L27989 25118
L27918 25118
L27889 25104
L27875 25090
" />
<path d="M28232 24818
L28261 24818
L28289 24833
L28304 24847
L28318 24875
L28332 24933
L28332 25004
L28318 25061
L28304 25090
L28289 25104
L28261 25118
L28232 25118
L28204 25104
L28189 25090
L28175 25061
L28161 25004
L28161 24933
L28175 24875
L28189 24847
L28204 24833
L28232 24818
" />
<path d="M28461 25004
L28689 25004
" />
<path d="M28818 24847
L28832 24833
L28861 24818
L28932 24818
L28961 24833
L28975 24847
L28989 24875
L28989 24904
L28975 24947
L28804 25118
L28989 25118
" />
<path d="M29175 24818
L29204 24818
L29232 24833
L29246 24847
L29261 24875
L29275 24933
L29275 25004
L29261 25061
L29246 25090
L29232 25104
L29204 25118
L29175 25118
L29146 25104
L29132 25090
L29118 25061
L29104 25004
L29104 24933
L29118 24875
L29132 24847
L29146 24833
L29175 24818
" />
<path d="M29461 24818
L29489 24818
L29518 24833
L29532 24847
L29546 24875
L29561 24933
L29561 25004
L29546 25061
L29532 25090
L29518 25104
L29489 25118
L29461 25118
L29432 25104
L29418 25090
L29404 25061
L29389 25004
L29389 24933
L29404 24875
L29418 24847
L29432 24833
L29461 24818
" />
<path d="M29646 24818
L29746 25118
L29846 24818
" />
</g>
<g style="fill:#000000; fill-opacity:0.0; 
stroke:#000000; stroke-width:118.11; stroke-opacity:1; 
stroke-linecap:round; stroke-linejoin:round;">
<path d="M23109 22102
L23109 22439
" />
<path d="M23109 22271
L22518 22271
L22602 22327
L22659 22383
L22687 22439
" />
<path d="M22574 21877
L22546 21849
L22518 21793
L22518 21652
L22546 21596
L22574 21568
L22631 21540
L22687 21540
L22771 21568
L23109 21905
L23109 21540
" />
<path d="M22518 21371
L23109 21174
L22518 20977
" />
<path d="M23109 20330
L22518 20330
" />
<path d="M23109 20049
L22518 20049
L23109 19712
L22518 19712
" />
</g>
<g style="fill:#000000; fill-opacity:0.0; 
stroke:#000000; stroke-width:70; stroke-opacity:1; 
stroke-linecap:round; stroke-linejoin:round;">
<path d="M30595 25024
L30295 25024
" />
<path d="M30438 25024
L30438 24799
" />
<path d="M30595 24799
L30295 24799
" />
<path d="M30295 24668
L30595 24537
L30295 24406
" />
<path d="M30481 24275
L30481 23975
" />
<path d="M32675 25024
L32375 25024
" />
<path d="M32518 25024
L32518 24799
" />
<path d="M32675 24799
L32375 24799
" />
<path d="M32375 24668
L32675 24537
L32375 24406
" />
<path d="M32561 24275
L32561 23975
" />
<path d="M32675 24125
L32447 24125
" />
</g>
<g style="fill:#000000; fill-opacity:0.0; 
stroke:#000000; stroke-width:75; stroke-opacity:1; 
stroke-linecap:round; stroke-linejoin:round;">
<path d="M22687 24988
L22687 24688
" />
<path d="M22801 24838
L22573 24838
" />
<path d="M22801 24294
L22801 24519
" />
<path d="M22801 24407
L22501 24407
L22544 24444
L22573 24482
L22587 24519
" />
<path d="M22530 24144
L22516 24125
L22501 24088
L22501 23994
L22516 23957
L22530 23938
L22558 23919
L22587 23919
L22630 23938
L22801 24163
L22801 23919
" />
<path d="M22501 23807
L22801 23675
L22501 23544
" />
<path d="M23837 25007
L23851 24950
L23851 24857
L23837 24819
L23823 24800
L23794 24782
L23766 24782
L23737 24800
L23723 24819
L23708 24857
L23694 24932
L23680 24969
L23666 24988
L23637 25007
L23608 25007
L23580 24988
L23566 24969
L23551 24932
L23551 24838
L23566 24782
" />
<path d="M23851 24613
L23551 24613
" />
<path d="M23694 24613
L23694 24388
" />
<path d="M23851 24388
L23551 24388
" />
<path d="M23851 24200
L23551 24200
L23551 24107
L23566 24050
L23594 24013
L23623 23994
L23680 23975
L23723 23975
L23780 23994
L23808 24013
L23837 24050
L23851 24107
L23851 24200
" />
<path d="M23851 23807
L23551 23807
L23851 23582
L23551 23582
" />
<path d="M24616 24782
L24601 24819
L24601 24875
L24616 24932
L24644 24969
L24673 24988
L24730 25007
L24773 25007
L24830 24988
L24858 24969
L24887 24932
L24901 24875
L24901 24838
L24887 24782
L24873 24763
L24773 24763
L24773 24838
" />
<path d="M24901 24594
L24601 24594
L24901 24369
L24601 24369
" />
<path d="M24901 24182
L24601 24182
L24601 24088
L24616 24032
L24644 23994
L24673 23975
L24730 23957
L24773 23957
L24830 23975
L24858 23994
L24887 24032
L24901 24088
L24901 24182
" />
</g>
<g style="fill:#000000; fill-opacity:0.0; 
stroke:#000000; stroke-width:118.11; stroke-opacity:1; 
stroke-linecap:round; stroke-linejoin:round;">
<path d="M22140 10800
L22140 10327
L22478 10800
L22478 10327
" />
<path d="M22759 10800
L22759 10485
" />
<path d="M22759 10327
L22731 10350
L22759 10372
L22787 10350
L22759 10327
L22759 10372
" />
<path d="M22984 10800
L23293 10485
" />
<path d="M22984 10485
L23293 10800
" />
<path d="M23518 10800
L23518 10327
L23715 10665
L23912 10327
L23912 10800
" />
<path d="M24446 10800
L24446 10552
L24418 10507
L24362 10485
L24249 10485
L24193 10507
" />
<path d="M24446 10777
L24390 10800
L24249 10800
L24193 10777
L24165 10732
L24165 10687
L24193 10642
L24249 10620
L24390 10620
L24446 10597
" />
<path d="M24699 10777
L24755 10800
L24868 10800
L24924 10777
L24952 10732
L24952 10710
L24924 10665
L24868 10642
L24784 10642
L24727 10620
L24699 10575
L24699 10552
L24727 10507
L24784 10485
L24868 10485
L24924 10507
" />
<path d="M25121 10485
L25346 10485
" />
<path d="M25205 10327
L25205 10732
L25233 10777
L25290 10800
L25346 10800
" />
<path d="M25768 10777
L25712 10800
L25599 10800
L25543 10777
L25515 10732
L25515 10552
L25543 10507
L25599 10485
L25712 10485
L25768 10507
L25796 10552
L25796 10597
L25515 10642
" />
<path d="M26049 10800
L26049 10485
" />
<path d="M26049 10575
L26077 10530
L26105 10507
L26161 10485
L26218 10485
" />
<path d="M26893 10800
L27005 10800
L27061 10777
L27089 10755
L27146 10687
L27174 10597
L27174 10417
L27146 10372
L27118 10350
L27061 10327
L26949 10327
L26893 10350
L26865 10372
L26836 10417
L26836 10530
L26865 10575
L26893 10597
L26949 10620
L27061 10620
L27118 10597
L27146 10575
L27174 10530
" />
<path d="M27539 10327
L27596 10327
L27652 10350
L27680 10372
L27708 10417
L27736 10507
L27736 10620
L27708 10710
L27680 10755
L27652 10777
L27596 10800
L27539 10800
L27483 10777
L27455 10755
L27427 10710
L27399 10620
L27399 10507
L27427 10417
L27455 10372
L27483 10350
L27539 10327
" />
<path d="M28102 10327
L28158 10327
L28214 10350
L28242 10372
L28271 10417
L28299 10507
L28299 10620
L28271 10710
L28242 10755
L28214 10777
L28158 10800
L28102 10800
L28046 10777
L28017 10755
L27989 10710
L27961 10620
L27961 10507
L27989 10417
L28017 10372
L28046 10350
L28102 10327
" />
<path d="M28664 10327
L28721 10327
L28777 10350
L28805 10372
L28833 10417
L28861 10507
L28861 10620
L28833 10710
L28805 10755
L28777 10777
L28721 10800
L28664 10800
L28608 10777
L28580 10755
L28552 10710
L28524 10620
L28524 10507
L28552 10417
L28580 10372
L28608 10350
L28664 10327
" />
<path d="M29902 10800
L29705 10575
" />
<path d="M29564 10800
L29564 10327
L29789 10327
L29845 10350
L29874 10372
L29902 10417
L29902 10485
L29874 10530
L29845 10552
L29789 10575
L29564 10575
" />
<path d="M30380 10777
L30323 10800
L30211 10800
L30155 10777
L30127 10732
L30127 10552
L30155 10507
L30211 10485
L30323 10485
L30380 10507
L30408 10552
L30408 10597
L30127 10642
" />
<path d="M30605 10485
L30745 10800
L30886 10485
" />
<path d="M31870 10800
L31533 10800
" />
<path d="M31701 10800
L31701 10327
L31645 10395
L31589 10440
L31533 10462
" />
<path d="M32123 10755
L32151 10777
L32123 10800
L32095 10777
L32123 10755
L32123 10800
" />
<path d="M32517 10327
L32573 10327
L32629 10350
L32658 10372
L32686 10417
L32714 10507
L32714 10620
L32686 10710
L32658 10755
L32629 10777
L32573 10800
L32517 10800
L32461 10777
L32433 10755
L32404 10710
L32376 10620
L32376 10507
L32404 10417
L32433 10372
L32461 10350
L32517 10327
" />
<path d="M22478 11582
L22449 11604
L22365 11627
L22309 11627
L22224 11604
L22168 11559
L22140 11514
L22112 11424
L22112 11357
L22140 11267
L22168 11222
L22224 11177
L22309 11154
L22365 11154
L22449 11177
L22478 11199
" />
<path d="M22984 11627
L22984 11379
L22956 11334
L22899 11312
L22787 11312
L22731 11334
" />
<path d="M22984 11604
L22928 11627
L22787 11627
L22731 11604
L22703 11559
L22703 11514
L22731 11469
L22787 11447
L22928 11447
L22984 11424
" />
<path d="M23265 11627
L23265 11312
" />
<path d="M23265 11402
L23293 11357
L23321 11334
L23377 11312
L23434 11312
" />
<path d="M23715 11627
L23659 11604
L23631 11559
L23631 11154
" />
<path d="M24727 11627
L24530 11402
" />
<path d="M24390 11627
L24390 11154
L24615 11154
L24671 11177
L24699 11199
L24727 11244
L24727 11312
L24699 11357
L24671 11379
L24615 11402
L24390 11402
" />
<path d="M25233 11627
L25233 11379
L25205 11334
L25149 11312
L25037 11312
L24980 11334
" />
<path d="M25233 11604
L25177 11627
L25037 11627
L24980 11604
L24952 11559
L24952 11514
L24980 11469
L25037 11447
L25177 11447
L25233 11424
" />
<path d="M25458 11312
L25599 11627
" />
<path d="M25740 11312
L25599 11627
L25543 11739
L25515 11762
L25458 11784
" />
<path d="M25965 11627
L25965 11312
" />
<path d="M25965 11357
L25993 11334
L26049 11312
L26133 11312
L26190 11334
L26218 11379
L26218 11627
" />
<path d="M26218 11379
L26246 11334
L26302 11312
L26386 11312
L26443 11334
L26471 11379
L26471 11627
" />
<path d="M26836 11627
L26780 11604
L26752 11582
L26724 11537
L26724 11402
L26752 11357
L26780 11334
L26836 11312
L26921 11312
L26977 11334
L27005 11357
L27033 11402
L27033 11537
L27005 11582
L26977 11604
L26921 11627
L26836 11627
" />
<path d="M27286 11312
L27286 11627
" />
<path d="M27286 11357
L27314 11334
L27371 11312
L27455 11312
L27511 11334
L27539 11379
L27539 11627
" />
<path d="M28074 11627
L28074 11154
" />
<path d="M28074 11604
L28017 11627
L27905 11627
L27849 11604
L27821 11582
L27793 11537
L27793 11402
L27821 11357
L27849 11334
L27905 11312
L28017 11312
L28074 11334
" />
<path d="M28383 11604
L28383 11627
L28355 11672
L28327 11694
" />
<path d="M29086 11627
L29086 11154
L29283 11492
L29480 11154
L29480 11627
" />
<path d="M30014 11627
L30014 11379
L29986 11334
L29930 11312
L29817 11312
L29761 11334
" />
<path d="M30014 11604
L29958 11627
L29817 11627
L29761 11604
L29733 11559
L29733 11514
L29761 11469
L29817 11447
L29958 11447
L30014 11424
" />
<path d="M30239 11312
L30380 11627
" />
<path d="M30520 11312
L30380 11627
L30323 11739
L30295 11762
L30239 11784
" />
<path d="M31167 11199
L31195 11177
L31251 11154
L31392 11154
L31448 11177
L31476 11199
L31505 11244
L31505 11289
L31476 11357
L31139 11627
L31505 11627
" />
<path d="M31870 11154
L31926 11154
L31983 11177
L32011 11199
L32039 11244
L32067 11334
L32067 11447
L32039 11537
L32011 11582
L31983 11604
L31926 11627
L31870 11627
L31814 11604
L31786 11582
L31758 11537
L31730 11447
L31730 11334
L31758 11244
L31786 11199
L31814 11177
L31870 11154
" />
<path d="M32629 11627
L32292 11627
" />
<path d="M32461 11627
L32461 11154
L32404 11222
L32348 11267
L32292 11289
" />
<path d="M32826 11154
L33220 11154
L32967 11627
" />
</g>
<g style="fill:#000000; fill-opacity:0.0; 
stroke:#000000; stroke-width:47.2441; stroke-opacity:1; 
stroke-linecap:round; stroke-linejoin:round;">
<path d="M19531 22811
L16066 22811
" />
<path d="M16066 22811
L16066 19188
" />
<path d="M21854 21748
L21854 22811
" />
<path d="M21854 22811
L21106 22811
" />
<path d="M16066 19188
L21854 19188
" />
<path d="M21854 19188
L21854 20212
" />
<path d="M26303 23036
L26303 22563
" />
<path d="M26996 22563
L26996 23036
" />
<path d="M32000 25476
L29976 25476
" />
<path d="M29976 25476
L29976 26523
" />
<path d="M29976 26523
L32000 26523
" />
<path d="M32000 26523
L32000 25476
" />
<path d="M32500 25476
L33023 25476
" />
<path d="M33023 25476
L33023 26000
" />
</g>
<g style="fill:#000000; fill-opacity:0.0; 
stroke:#000000; stroke-width:59.0551; stroke-opacity:1; 
stroke-linecap:round; stroke-linejoin:round;">
<path d="M29450 22000
L27850 22000
" />
<path d="M27850 22000
L27850 23600
" />
<path d="M27850 23600
L29450 23600
" />
<path d="M29450 23600
L29450 22000
" />
</g>
<g style="fill:#000000; fill-opacity:0.0; 
stroke:#000000; stroke-width:47.2441; stroke-opacity:1; 
stroke-linecap:round; stroke-linejoin:round;">
<path d="M31276 22033
L33323 22033
" />
<path d="M33323 23466
L31276 23466
" />
<path d="M29884 20696
L29884 20303
" />
<path d="M29215 20303
L29215 20696
" />
</g>
<g style="fill:#000000; fill-opacity:0.0; 
stroke:#000000; stroke-width:59.0551; stroke-opacity:1; 
stroke-linecap:round; stroke-linejoin:round;">
<path d="M23200 17969.8 A2969.85 2969.85 0.0 0 0 26169.8 15000 " />
<path d="M26169 12878
L26169 14858
" />
<path d="M21078 17969
L23058 17969
" />
<path d="M23200 12030.2 A2969.85 2969.85 0.0 0 0 20230.2 15000 " />
<path d="M23341 12030
L25321 12030
" />
<path d="M25321 12030
L24472 12878
" />
<path d="M24472 12878
L25321 13727
" />
<path d="M25321 13727
L26169 12878
" />
<path d="M20230 15141
L20230 17121
" />
<path d="M20230 17121
L21078 16272
" />
<path d="M21078 16272
L21927 17121
" />
<path d="M21927 17121
L21078 17969
" />
<circle cx="23200" cy="15000" r="2400" /> 
<path d="M27683 17436
L27683 17455
" />
<path d="M29316 17436
L29316 17493
" />
<path d="M29316 19463
L29316 19406
" />
<path d="M27683 19463
L27683 19406
" />
<path d="M27683 17436
L29316 17436
" />
<path d="M27683 19463
L29316 19463
" />
<path d="M27683 17455
L27131 17455
" />
</g>
<g style="fill:#000000; fill-opacity:0.0; 
stroke:#000000; stroke-width:47.2441; stroke-opacity:1; 
stroke-linecap:round; stroke-linejoin:round;">
<path d="M26784 18896
L26784 18503
" />
<path d="M26115 18503
L26115 18896
" />
<path d="M26484 15418
L30515 15418
" />
<path d="M26484 17245
L30515 17245
" />
<path d="M26484 15418
L26484 17245
" />
<path d="M30515 15418
L30515 17245
" />
<path d="M26484 16012
L30515 16012
" />
<path d="M27771 15418
L27771 16012
" />
<path d="M29228 15418
L29228 16012
" />
<path d="M30867 18467
L30867 16932
" />
<path d="M32032 16932
L32032 18467
" />
<path d="M25625 18157
L25625 21937
" />
<path d="M23774 18157
L23774 21937
" />
<path d="M25625 18157
L23774 18157
" />
<path d="M23250 26523
L25273 26523
" />
<path d="M25273 26523
L25273 25476
" />
<path d="M25273 25476
L23250 25476
" />
<path d="M23250 25476
L23250 26523
" />
<path d="M22750 26523
L22226 26523
" />
<path d="M22226 26523
L22226 26000
" />
<path d="M36055 19075
L34244 19075
" />
<path d="M34244 21224
L36055 21224
" />
</g>
<g style="fill:#000000; fill-opacity:0.0; 
stroke:#000000; stroke-width:59.0551; stroke-opacity:1; 
stroke-linecap:round; stroke-linejoin:round;">
<path d="M29200 14950
L31000 14950
" />
<path d="M31000 14950
L31000 13550
" />
<path d="M31000 13550
L29200 13550
" />
<path d="M29200 13550
L29200 14950
" />
</g>
<g style="fill:#000000; fill-opacity:0.0; 
stroke:#000000; stroke-width:47.2441; stroke-opacity:1; 
stroke-linecap:round; stroke-linejoin:round;">
<path d="M32798 14398
L32798 15535
" />
<path d="M32798 17901
L32798 16764
" />
<path d="M36901 18201
L36901 16764
" />
<path d="M36901 14098
L36901 15535
" />
<path d="M36901 18201
L33098 18201
" />
<path d="M33098 18201
L32798 17901
" />
<path d="M32798 14398
L33098 14098
" />
<path d="M33098 14098
L36901 14098
" />
<path d="M17972 18924
L17972 15144
" />
<path d="M19823 18924
L19823 15144
" />
<path d="M17972 18924
L19823 18924
" />
</g>
<g style="fill:#000000; fill-opacity:0.0; 
stroke:#000000; stroke-width:59.0551; stroke-opacity:1; 
stroke-linecap:round; stroke-linejoin:round;">
<path d="M18041 23048
L18041 23329
L18023 23385
L17985 23423
L17929 23441
L17892 23441
" />
<path d="M18435 23441
L18210 23441
" />
<path d="M18323 23441
L18323 23048
L18285 23104
L18248 23141
L18210 23160
" />
<path d="M26584 21678
L26453 21490
" />
<path d="M26359 21678
L26359 21284
L26509 21284
L26546 21303
L26565 21321
L26584 21359
L26584 21415
L26565 21453
L26546 21471
L26509 21490
L26359 21490
" />
<path d="M26959 21678
L26734 21678
" />
<path d="M26846 21678
L26846 21284
L26809 21340
L26771 21378
L26734 21396
" />
<path d="M29065 26212
L29065 25818
L29215 25818
L29252 25837
L29271 25855
L29290 25893
L29290 25949
L29271 25987
L29252 26005
L29215 26024
L29065 26024
" />
<path d="M29440 25855
L29459 25837
L29496 25818
L29590 25818
L29627 25837
L29646 25855
L29665 25893
L29665 25930
L29646 25987
L29421 26212
L29665 26212
" />
<path d="M27844 21416
L27975 21810
L28106 21416
" />
<path d="M28463 21810
L28331 21622
" />
<path d="M28238 21810
L28238 21416
L28388 21416
L28425 21435
L28444 21453
L28463 21491
L28463 21547
L28444 21585
L28425 21603
L28388 21622
L28238 21622
" />
<path d="M28838 21810
L28613 21810
" />
<path d="M28725 21810
L28725 21416
L28688 21472
L28650 21510
L28613 21528
" />
<path d="M32184 21678
L32053 21490
" />
<path d="M31959 21678
L31959 21284
L32109 21284
L32146 21303
L32165 21321
L32184 21359
L32184 21415
L32165 21453
L32146 21471
L32109 21490
L31959 21490
" />
<path d="M32334 21321
L32353 21303
L32390 21284
L32484 21284
L32521 21303
L32540 21321
L32559 21359
L32559 21396
L32540 21453
L32315 21678
L32559 21678
" />
<path d="M30379 20565
L30398 20584
L30417 20640
L30417 20678
L30398 20734
L30360 20771
L30323 20790
L30248 20809
L30192 20809
L30117 20790
L30079 20771
L30042 20734
L30023 20678
L30023 20640
L30042 20584
L30060 20565
" />
<path d="M30023 20434
L30023 20190
L30173 20321
L30173 20265
L30192 20228
L30210 20209
L30248 20190
L30342 20190
L30379 20209
L30398 20228
L30417 20265
L30417 20378
L30398 20415
L30379 20434
" />
<path d="M25625 17367
L25493 17234
L25771 16956
" />
<path d="M25864 17606
L25705 17447
" />
<path d="M25784 17526
L26063 17248
L25996 17261
L25943 17261
L25904 17248
" />
<path d="M28200 19784
L28200 20103
L28218 20140
L28237 20159
L28275 20178
L28350 20178
L28387 20159
L28406 20140
L28425 20103
L28425 19784
" />
<path d="M28818 20178
L28593 20178
" />
<path d="M28706 20178
L28706 19784
L28668 19840
L28631 19878
L28593 19896
" />
<path d="M27034 20040
L27015 20059
L26959 20078
L26921 20078
L26865 20059
L26828 20021
L26809 19984
L26790 19909
L26790 19853
L26809 19778
L26828 19740
L26865 19703
L26921 19684
L26959 19684
L27015 19703
L27034 19721
" />
<path d="M27184 19721
L27203 19703
L27240 19684
L27334 19684
L27371 19703
L27390 19721
L27409 19759
L27409 19796
L27390 19853
L27165 20078
L27409 20078
" />
<path d="M28200 14809
L28425 14809
" />
<path d="M28312 15202
L28312 14809
" />
<path d="M28762 15202
L28537 15202
" />
<path d="M28649 15202
L28649 14809
L28612 14865
L28574 14902
L28537 14921
" />
<path d="M32378 18149
L32190 18281
" />
<path d="M32378 18374
L31984 18374
L31984 18224
L32003 18187
L32021 18168
L32059 18149
L32115 18149
L32153 18168
L32171 18187
L32190 18224
L32190 18374
" />
<path d="M32359 17999
L32378 17962
L32378 17887
L32359 17849
L32321 17831
L32303 17831
L32265 17849
L32246 17887
L32246 17943
L32228 17981
L32190 17999
L32171 17999
L32134 17981
L32115 17943
L32115 17887
L32134 17849
" />
<path d="M32359 17512
L32378 17549
L32378 17624
L32359 17662
L32321 17681
L32171 17681
L32134 17662
L32115 17624
L32115 17549
L32134 17512
L32171 17493
L32209 17493
L32246 17681
" />
<path d="M32115 17324
L32378 17324
" />
<path d="M32153 17324
L32134 17306
L32115 17268
L32115 17212
L32134 17175
L32171 17156
L32378 17156
" />
<path d="M32359 16987
L32378 16950
L32378 16875
L32359 16837
L32321 16818
L32303 16818
L32265 16837
L32246 16875
L32246 16931
L32228 16968
L32190 16987
L32171 16987
L32134 16968
L32115 16931
L32115 16875
L32134 16837
" />
<path d="M32359 16500
L32378 16537
L32378 16612
L32359 16650
L32321 16668
L32171 16668
L32134 16650
L32115 16612
L32115 16537
L32134 16500
L32171 16481
L32209 16481
L32246 16668
" />
<path d="M32378 16106
L32378 16331
" />
<path d="M32378 16218
L31984 16218
L32040 16256
L32078 16293
L32096 16331
" />
<path d="M23734 23340
L23715 23359
L23659 23378
L23621 23378
L23565 23359
L23528 23321
L23509 23284
L23490 23209
L23490 23153
L23509 23078
L23528 23040
L23565 23003
L23621 22984
L23659 22984
L23715 23003
L23734 23021
" />
<path d="M24090 22984
L23903 22984
L23884 23171
L23903 23153
L23940 23134
L24034 23134
L24071 23153
L24090 23171
L24109 23209
L24109 23303
L24090 23340
L24071 23359
L24034 23378
L23940 23378
L23903 23359
L23884 23340
" />
<path d="M25615 26212
L25615 25818
L25765 25818
L25802 25837
L25821 25855
L25840 25893
L25840 25949
L25821 25987
L25802 26005
L25765 26024
L25615 26024
" />
<path d="M26215 26212
L25990 26212
" />
<path d="M26102 26212
L26102 25818
L26065 25874
L26027 25912
L25990 25930
" />
<path d="M35084 21790
L35065 21809
L35009 21828
L34971 21828
L34915 21809
L34878 21771
L34859 21734
L34840 21659
L34840 21603
L34859 21528
L34878 21490
L34915 21453
L34971 21434
L35009 21434
L35065 21453
L35084 21471
" />
<path d="M35421 21434
L35346 21434
L35309 21453
L35290 21471
L35253 21528
L35234 21603
L35234 21753
L35253 21790
L35271 21809
L35309 21828
L35384 21828
L35421 21809
L35440 21790
L35459 21753
L35459 21659
L35440 21621
L35421 21603
L35384 21584
L35309 21584
L35271 21603
L35253 21621
L35234 21659
" />
<path d="M29759 13378
L29759 12984
L29853 12984
L29909 13003
L29946 13040
L29965 13078
L29984 13153
L29984 13209
L29965 13284
L29946 13321
L29909 13359
L29853 13378
L29759 13378
" />
<path d="M30359 13378
L30134 13378
" />
<path d="M30246 13378
L30246 12984
L30209 13040
L30171 13078
L30134 13096
" />
<path d="M34184 13890
L34165 13909
L34109 13928
L34071 13928
L34015 13909
L33978 13871
L33959 13834
L33940 13759
L33940 13703
L33959 13628
L33978 13590
L34015 13553
L34071 13534
L34109 13534
L34165 13553
L34184 13571
" />
<path d="M34521 13665
L34521 13928
" />
<path d="M34428 13515
L34334 13796
L34578 13796
" />
<path d="M32424 18134
L32724 18134
" />
<path d="M32574 18284
L32574 17984
" />
<path d="M18182 13934
L18163 13953
L18107 13972
L18069 13972
L18013 13953
L17976 13915
L17957 13878
L17938 13803
L17938 13747
L17957 13672
L17976 13634
L18013 13597
L18069 13578
L18107 13578
L18163 13597
L18182 13615
" />
<path d="M18557 13972
L18332 13972
" />
<path d="M18444 13972
L18444 13578
L18407 13634
L18369 13672
L18332 13690
" />
</g> 
</svg>
