<?xml version="1.0" standalone="no"?>
 <!DOCTYPE svg PUBLIC "-//W3C//DTD SVG 1.1//EN" 
 "http://www.w3.org/Graphics/SVG/1.1/DTD/svg11.dtd"> 
<svg xmlns="http://www.w3.org/2000/svg" version="1.1" 
    width="27.94cm" height="21.59cm" viewBox="0 0 110000 85000 ">
<title>SVG Picture created as NixiePowerSupply-B.Cu.svg date 2017/05/06 16:39:10 </title>
  <desc>Picture generated by PCBNEW </desc>
<g style="fill:#000000; fill-opacity:1;stroke:#000000; stroke-opacity:1;
stroke-linecap:round; stroke-linejoin:round; "
 transform="translate(0 0) scale(1 1)">
</g>
<g style="fill:#000000; fill-opacity:0.0; 
stroke:#000000; stroke-width:-0.000393701; stroke-opacity:1; 
stroke-linecap:round; stroke-linejoin:round;">
</g>
<g style="fill:#000000; fill-opacity:0.0; 
stroke:#000000; stroke-width:0; stroke-opacity:1; 
stroke-linecap:round; stroke-linejoin:round;">
</g>
<g style="fill:#000000; fill-opacity:1.0; 
stroke:#000000; stroke-width:0; stroke-opacity:1; 
stroke-linecap:round; stroke-linejoin:round;">
<polyline style="fill-rule:evenodd;"
points="20811,21688
20811,20311
22188,20311
22188,21688
20811,21688
" /> 
<polyline style="fill-rule:evenodd;"
points="18448,21688
18448,20311
19826,20311
19826,21688
18448,21688
" /> 
<polyline style="fill-rule:evenodd;"
points="19629,23539
19629,22161
21007,22161
21007,23539
19629,23539
" /> 
<polyline style="fill-rule:evenodd;"
points="32165,25665
32834,25665
32834,26334
32165,26334
32165,25665
" /> 
</g>
<g style="fill:#000000; fill-opacity:1.0; 
stroke:#000000; stroke-width:669.291; stroke-opacity:1; 
stroke-linecap:round; stroke-linejoin:round;">
</g>
<g style="fill:#000000; fill-opacity:0.0; 
stroke:#000000; stroke-width:669.291; stroke-opacity:1; 
stroke-linecap:round; stroke-linejoin:round;">
<path d="M30500 26000
L30500 26000
" />
</g>
<g style="fill:#000000; fill-opacity:0.0; 
stroke:#000000; stroke-width:0; stroke-opacity:1; 
stroke-linecap:round; stroke-linejoin:round;">
</g>
<g style="fill:#000000; fill-opacity:1.0; 
stroke:#000000; stroke-width:0; stroke-opacity:1; 
stroke-linecap:round; stroke-linejoin:round;">
<polyline style="fill-rule:evenodd;"
points="27145,16804
27145,16095
27854,16095
27854,16804
27145,16804
" /> 
</g>
<g style="fill:#000000; fill-opacity:1.0; 
stroke:#000000; stroke-width:708.661; stroke-opacity:1; 
stroke-linecap:round; stroke-linejoin:round;">
</g>
<g style="fill:#000000; fill-opacity:0.0; 
stroke:#000000; stroke-width:708.661; stroke-opacity:1; 
stroke-linecap:round; stroke-linejoin:round;">
<path d="M28500 16450
L28500 16450
" />
<path d="M29500 16450
L29500 16450
" />
</g>
<g style="fill:#000000; fill-opacity:0.0; 
stroke:#000000; stroke-width:0; stroke-opacity:1; 
stroke-linecap:round; stroke-linejoin:round;">
</g>
<g style="fill:#000000; fill-opacity:1.0; 
stroke:#000000; stroke-width:0; stroke-opacity:1; 
stroke-linecap:round; stroke-linejoin:round;">
<polyline style="fill-rule:evenodd;"
points="23084,26334
22415,26334
22415,25665
23084,25665
23084,26334
" /> 
</g>
<g style="fill:#000000; fill-opacity:1.0; 
stroke:#000000; stroke-width:669.291; stroke-opacity:1; 
stroke-linecap:round; stroke-linejoin:round;">
</g>
<g style="fill:#000000; fill-opacity:0.0; 
stroke:#000000; stroke-width:669.291; stroke-opacity:1; 
stroke-linecap:round; stroke-linejoin:round;">
<path d="M23750 26000
L23750 26000
" />
<path d="M24750 26000
L24750 26000
" />
</g>
<g style="fill:#000000; fill-opacity:1.0; 
stroke:#000000; stroke-width:0; stroke-opacity:1; 
stroke-linecap:round; stroke-linejoin:round;">
<circle cx="18916" cy="16522" r="250" /> 
</g>
<g style="fill:#000000; fill-opacity:1.0; 
stroke:#000000; stroke-width:39.3701; stroke-opacity:1; 
stroke-linecap:round; stroke-linejoin:round;">
</g>
<g style="fill:#000000; fill-opacity:1.0; 
stroke:#000000; stroke-width:0; stroke-opacity:1; 
stroke-linecap:round; stroke-linejoin:round;">
<circle cx="31750" cy="19750" r="200" /> 
</g>
<g style="fill:#000000; fill-opacity:1.0; 
stroke:#000000; stroke-width:39.3701; stroke-opacity:1; 
stroke-linecap:round; stroke-linejoin:round;">
</g>
<g style="fill:#000000; fill-opacity:1.0; 
stroke:#000000; stroke-width:0; stroke-opacity:1; 
stroke-linecap:round; stroke-linejoin:round;">
<circle cx="31000" cy="19750" r="200" /> 
</g>
<g style="fill:#000000; fill-opacity:1.0; 
stroke:#000000; stroke-width:39.3701; stroke-opacity:1; 
stroke-linecap:round; stroke-linejoin:round;">
</g>
<g style="fill:#000000; fill-opacity:1.0; 
stroke:#000000; stroke-width:0; stroke-opacity:1; 
stroke-linecap:round; stroke-linejoin:round;">
<circle cx="31000" cy="20250" r="200" /> 
</g>
<g style="fill:#000000; fill-opacity:1.0; 
stroke:#000000; stroke-width:39.3701; stroke-opacity:1; 
stroke-linecap:round; stroke-linejoin:round;">
</g>
<g style="fill:#000000; fill-opacity:1.0; 
stroke:#000000; stroke-width:0; stroke-opacity:1; 
stroke-linecap:round; stroke-linejoin:round;">
<circle cx="31750" cy="20250" r="200" /> 
</g>
<g style="fill:#000000; fill-opacity:1.0; 
stroke:#000000; stroke-width:39.3701; stroke-opacity:1; 
stroke-linecap:round; stroke-linejoin:round;">
</g>
<g style="fill:#000000; fill-opacity:1.0; 
stroke:#000000; stroke-width:0; stroke-opacity:1; 
stroke-linecap:round; stroke-linejoin:round;">
<circle cx="31750" cy="20750" r="200" /> 
</g>
<g style="fill:#000000; fill-opacity:1.0; 
stroke:#000000; stroke-width:39.3701; stroke-opacity:1; 
stroke-linecap:round; stroke-linejoin:round;">
</g>
<g style="fill:#000000; fill-opacity:1.0; 
stroke:#000000; stroke-width:0; stroke-opacity:1; 
stroke-linecap:round; stroke-linejoin:round;">
<circle cx="31000" cy="20750" r="200" /> 
</g>
<g style="fill:#000000; fill-opacity:1.0; 
stroke:#000000; stroke-width:39.3701; stroke-opacity:1; 
stroke-linecap:round; stroke-linejoin:round;">
</g>
<g style="fill:#000000; fill-opacity:1.0; 
stroke:#000000; stroke-width:0; stroke-opacity:1; 
stroke-linecap:round; stroke-linejoin:round;">
<circle cx="26650" cy="24050" r="118.11" /> 
</g>
<g style="fill:#000000; fill-opacity:1.0; 
stroke:#000000; stroke-width:39.3701; stroke-opacity:1; 
stroke-linecap:round; stroke-linejoin:round;">
</g>
<g style="fill:#000000; fill-opacity:1.0; 
stroke:#000000; stroke-width:0; stroke-opacity:1; 
stroke-linecap:round; stroke-linejoin:round;">
<circle cx="24700" cy="23450" r="118.11" /> 
</g>
<g style="fill:#000000; fill-opacity:1.0; 
stroke:#000000; stroke-width:39.3701; stroke-opacity:1; 
stroke-linecap:round; stroke-linejoin:round;">
</g>
<g style="fill:#000000; fill-opacity:1.0; 
stroke:#000000; stroke-width:0; stroke-opacity:1; 
stroke-linecap:round; stroke-linejoin:round;">
<circle cx="30200" cy="21000" r="200" /> 
</g>
<g style="fill:#000000; fill-opacity:1.0; 
stroke:#000000; stroke-width:39.3701; stroke-opacity:1; 
stroke-linecap:round; stroke-linejoin:round;">
</g>
<g style="fill:#000000; fill-opacity:1.0; 
stroke:#000000; stroke-width:0; stroke-opacity:1; 
stroke-linecap:round; stroke-linejoin:round;">
<circle cx="26450" cy="19900" r="200" /> 
</g>
<g style="fill:#000000; fill-opacity:1.0; 
stroke:#000000; stroke-width:39.3701; stroke-opacity:1; 
stroke-linecap:round; stroke-linejoin:round;">
</g>
<g style="fill:#000000; fill-opacity:1.0; 
stroke:#000000; stroke-width:0; stroke-opacity:1; 
stroke-linecap:round; stroke-linejoin:round;">
<circle cx="37000" cy="17000" r="200" /> 
</g>
<g style="fill:#000000; fill-opacity:1.0; 
stroke:#000000; stroke-width:39.3701; stroke-opacity:1; 
stroke-linecap:round; stroke-linejoin:round;">
</g>
<g style="fill:#000000; fill-opacity:1.0; 
stroke:#000000; stroke-width:0; stroke-opacity:1; 
stroke-linecap:round; stroke-linejoin:round;">
<circle cx="37000" cy="17600" r="200" /> 
</g>
<g style="fill:#000000; fill-opacity:1.0; 
stroke:#000000; stroke-width:39.3701; stroke-opacity:1; 
stroke-linecap:round; stroke-linejoin:round;">
</g>
<g style="fill:#000000; fill-opacity:1.0; 
stroke:#000000; stroke-width:0; stroke-opacity:1; 
stroke-linecap:round; stroke-linejoin:round;">
<circle cx="36400" cy="17600" r="200" /> 
</g>
<g style="fill:#000000; fill-opacity:1.0; 
stroke:#000000; stroke-width:39.3701; stroke-opacity:1; 
stroke-linecap:round; stroke-linejoin:round;">
</g>
<g style="fill:#000000; fill-opacity:1.0; 
stroke:#000000; stroke-width:0; stroke-opacity:1; 
stroke-linecap:round; stroke-linejoin:round;">
<circle cx="35800" cy="17600" r="200" /> 
</g>
<g style="fill:#000000; fill-opacity:1.0; 
stroke:#000000; stroke-width:39.3701; stroke-opacity:1; 
stroke-linecap:round; stroke-linejoin:round;">
</g>
<g style="fill:#000000; fill-opacity:1.0; 
stroke:#000000; stroke-width:0; stroke-opacity:1; 
stroke-linecap:round; stroke-linejoin:round;">
<circle cx="35800" cy="17000" r="200" /> 
</g>
<g style="fill:#000000; fill-opacity:1.0; 
stroke:#000000; stroke-width:39.3701; stroke-opacity:1; 
stroke-linecap:round; stroke-linejoin:round;">
</g>
<g style="fill:#000000; fill-opacity:1.0; 
stroke:#000000; stroke-width:0; stroke-opacity:1; 
stroke-linecap:round; stroke-linejoin:round;">
<circle cx="36400" cy="17000" r="200" /> 
</g>
<g style="fill:#000000; fill-opacity:1.0; 
stroke:#000000; stroke-width:39.3701; stroke-opacity:1; 
stroke-linecap:round; stroke-linejoin:round;">
</g>
<g style="fill:#000000; fill-opacity:1.0; 
stroke:#000000; stroke-width:0; stroke-opacity:1; 
stroke-linecap:round; stroke-linejoin:round;">
<circle cx="37000" cy="15200" r="200" /> 
</g>
<g style="fill:#000000; fill-opacity:1.0; 
stroke:#000000; stroke-width:39.3701; stroke-opacity:1; 
stroke-linecap:round; stroke-linejoin:round;">
</g>
<g style="fill:#000000; fill-opacity:1.0; 
stroke:#000000; stroke-width:0; stroke-opacity:1; 
stroke-linecap:round; stroke-linejoin:round;">
<circle cx="37000" cy="14600" r="200" /> 
</g>
<g style="fill:#000000; fill-opacity:1.0; 
stroke:#000000; stroke-width:39.3701; stroke-opacity:1; 
stroke-linecap:round; stroke-linejoin:round;">
</g>
<g style="fill:#000000; fill-opacity:1.0; 
stroke:#000000; stroke-width:0; stroke-opacity:1; 
stroke-linecap:round; stroke-linejoin:round;">
<circle cx="36400" cy="14600" r="200" /> 
</g>
<g style="fill:#000000; fill-opacity:1.0; 
stroke:#000000; stroke-width:39.3701; stroke-opacity:1; 
stroke-linecap:round; stroke-linejoin:round;">
</g>
<g style="fill:#000000; fill-opacity:1.0; 
stroke:#000000; stroke-width:0; stroke-opacity:1; 
stroke-linecap:round; stroke-linejoin:round;">
<circle cx="35800" cy="14600" r="200" /> 
</g>
<g style="fill:#000000; fill-opacity:1.0; 
stroke:#000000; stroke-width:39.3701; stroke-opacity:1; 
stroke-linecap:round; stroke-linejoin:round;">
</g>
<g style="fill:#000000; fill-opacity:1.0; 
stroke:#000000; stroke-width:0; stroke-opacity:1; 
stroke-linecap:round; stroke-linejoin:round;">
<circle cx="35800" cy="15200" r="200" /> 
</g>
<g style="fill:#000000; fill-opacity:1.0; 
stroke:#000000; stroke-width:39.3701; stroke-opacity:1; 
stroke-linecap:round; stroke-linejoin:round;">
</g>
<g style="fill:#000000; fill-opacity:1.0; 
stroke:#000000; stroke-width:0; stroke-opacity:1; 
stroke-linecap:round; stroke-linejoin:round;">
<circle cx="36400" cy="15200" r="200" /> 
</g>
<g style="fill:#000000; fill-opacity:1.0; 
stroke:#000000; stroke-width:39.3701; stroke-opacity:1; 
stroke-linecap:round; stroke-linejoin:round;">
</g>
<g style="fill:#000000; fill-opacity:1.0; 
stroke:#000000; stroke-width:200; stroke-opacity:1; 
stroke-linecap:round; stroke-linejoin:round;">
</g>
<g style="fill:#000000; fill-opacity:0.0; 
stroke:#000000; stroke-width:200; stroke-opacity:1; 
stroke-linecap:round; stroke-linejoin:round;">
<path d="M31750 20750
L31000 20750
" />
<path d="M31750 19750
L31000 19750
" />
<path d="M31000 20250
L31750 20250
" />
<path d="M37000 17600
L37000 17000
" />
<path d="M35800 17600
L36400 17600
" />
<path d="M36400 17000
L35800 17000
" />
<path d="M37000 14600
L37000 15200
" />
<path d="M35800 14600
L36400 14600
" />
<path d="M36400 15200
L35800 15200
" />
</g>
<g style="fill:#000000; fill-opacity:1.0; 
stroke:#000000; stroke-width:100; stroke-opacity:1; 
stroke-linecap:round; stroke-linejoin:round;">
<polyline style="fill-rule:evenodd;"
points="33420,12507
33405,13281
33409,13300
33419,13317
33910,13812
33926,13824
33946,13827
36993,13802
37330,14136
37330,27099
37099,27330
17901,27330
17669,27098
17669,25673
18621,25673
18754,25996
19001,26244
19324,26378
19673,26378
19996,26245
20244,25998
20378,25675
20378,25665
22262,25665
22262,26334
22272,26390
22305,26441
22355,26475
22415,26487
23084,26487
23140,26477
23191,26444
23225,26394
23237,26334
23237,25990
23265,25990
23265,26009
23302,26194
23407,26352
23564,26457
23750,26494
23935,26457
24092,26352
24197,26194
24200,26179
24279,26346
24448,26500
24609,26567
24700,26519
24700,26050
24800,26050
24800,26519
24890,26567
25051,26500
25220,26346
25317,26140
29932,26140
30029,26346
30198,26500
30359,26567
30450,26519
30450,26050
30550,26050
30550,26519
30640,26567
30801,26500
30970,26346
31067,26140
31020,26050
30550,26050
30450,26050
29979,26050
29932,26140
25317,26140
25270,26050
24800,26050
24700,26050
24692,26050
24692,25950
24700,25950
24700,25480
24800,25480
24800,25950
25270,25950
25317,25859
29932,25859
29979,25950
30450,25950
30450,25480
30550,25480
30550,25950
31020,25950
31067,25859
30976,25665
32012,25665
32012,26334
32022,26390
32055,26441
32105,26475
32165,26487
32834,26487
32890,26477
32941,26444
32975,26394
32987,26334
32987,25673
34621,25673
34754,25996
35001,26244
35324,26378
35673,26378
35996,26245
36244,25998
36378,25675
36378,25326
36245,25003
35998,24755
35675,24621
35326,24621
35003,24754
34755,25001
34621,25324
34621,25673
32987,25673
32987,25665
32977,25609
32944,25558
32894,25524
32834,25512
32165,25512
32109,25522
32058,25555
32024,25605
32012,25665
30976,25665
30970,25653
30801,25499
30640,25432
30550,25480
30450,25480
30359,25432
30198,25499
30029,25653
29932,25859
25317,25859
25220,25653
25051,25499
24890,25432
24800,25480
24700,25480
24609,25432
24448,25499
24279,25653
24200,25820
24197,25805
24092,25647
23935,25542
23750,25505
23564,25542
23407,25647
23302,25805
23265,25990
23237,25990
23237,25665
23227,25609
23194,25558
23144,25524
23084,25512
22415,25512
22359,25522
22308,25555
22274,25605
22262,25665
20378,25665
20378,25326
20245,25003
19998,24755
19675,24621
19326,24621
19003,24754
18755,25001
18621,25324
18621,25673
17669,25673
17669,22962
19379,22962
19379,23589
19417,23680
19488,23751
19580,23789
20206,23789
20268,23726
20268,22900
20368,22900
20368,23726
20431,23789
21057,23789
21149,23751
21219,23680
21257,23589
21257,22962
21195,22900
20368,22900
20268,22900
19442,22900
19379,22962
17669,22962
17669,21112
18198,21112
18198,21738
18236,21830
18307,21900
18399,21938
19025,21938
19087,21876
19087,21050
19187,21050
19187,21876
19250,21938
19513,21938
19488,21949
19417,22019
19379,22111
19379,22737
19442,22800
20268,22800
20268,21973
20368,21973
20368,22800
21195,22800
21257,22737
21257,22111
21219,22019
21149,21949
21057,21911
20431,21911
20368,21973
20268,21973
20206,21911
19943,21911
19968,21900
20038,21830
20076,21738
20076,21112
20014,21050
19187,21050
19087,21050
18261,21050
18198,21112
17669,21112
17669,20261
18198,20261
18198,20887
18261,20950
19087,20950
19087,20123
19187,20123
19187,20950
20014,20950
20076,20887
20076,20311
20658,20311
20658,21688
20668,21744
20701,21795
20751,21829
20811,21841
22188,21841
22244,21831
22295,21798
22329,21748
22341,21688
22341,20311
22331,20255
22298,20204
22248,20170
22188,20158
20811,20158
20755,20168
20704,20201
20670,20251
20658,20311
20076,20311
20076,20261
20038,20169
19968,20099
19876,20061
19250,20061
19187,20123
19087,20123
19025,20061
18399,20061
18307,20099
18236,20169
18198,20261
17669,20261
17669,14381
18036,14012
19611,14003
20082,14470
20082,17608
20085,17627
20096,17643
20596,18141
20613,18152
20632,18156
25788,18135
25807,18131
25823,18121
26327,17619
26338,17602
26341,17584
26353,16095
26992,16095
26992,16804
27003,16859
27036,16910
27086,16945
27145,16957
27854,16957
27909,16946
27960,16913
27995,16863
28007,16804
28007,16557
28024,16642
28133,16806
28297,16915
28490,16954
28509,16954
28702,16915
28866,16806
28975,16642
29000,16521
29024,16642
29133,16806
29297,16915
29490,16954
29509,16954
29702,16915
29866,16806
29975,16642
30014,16450
29975,16257
29866,16093
29702,15984
29509,15945
29490,15945
29297,15984
29133,16093
29024,16257
29000,16378
28975,16257
28866,16093
28702,15984
28509,15945
28490,15945
28297,15984
28133,16093
28024,16257
28007,16342
28007,16095
27996,16040
27963,15989
27913,15954
27854,15942
27145,15942
27090,15953
27039,15986
27004,16036
26992,16095
26353,16095
26381,12520
26856,12049
32959,12038
33420,12507
" /> 
</g> 
</svg>
