<?xml version="1.0" standalone="no"?>
 <!DOCTYPE svg PUBLIC "-//W3C//DTD SVG 1.1//EN" 
 "http://www.w3.org/Graphics/SVG/1.1/DTD/svg11.dtd"> 
<svg xmlns="http://www.w3.org/2000/svg" version="1.1" 
    width="27.94cm" height="21.59cm" viewBox="0 0 110000 85000 ">
<title>SVG Picture created as NixiePowerSupply-F.Cu.svg date 2017/05/06 16:39:10 </title>
  <desc>Picture generated by PCBNEW </desc>
<g style="fill:#000000; fill-opacity:1;stroke:#000000; stroke-opacity:1;
stroke-linecap:round; stroke-linejoin:round; "
 transform="translate(0 0) scale(1 1)">
</g>
<g style="fill:#000000; fill-opacity:0.0; 
stroke:#000000; stroke-width:-0.000393701; stroke-opacity:1; 
stroke-linecap:round; stroke-linejoin:round;">
</g>
<g style="fill:#000000; fill-opacity:0.0; 
stroke:#000000; stroke-width:0; stroke-opacity:1; 
stroke-linecap:round; stroke-linejoin:round;">
</g>
<g style="fill:#000000; fill-opacity:1.0; 
stroke:#000000; stroke-width:0; stroke-opacity:1; 
stroke-linecap:round; stroke-linejoin:round;">
<polyline style="fill-rule:evenodd;"
points="20811,21688
20811,20311
22188,20311
22188,21688
20811,21688
" /> 
<polyline style="fill-rule:evenodd;"
points="18448,21688
18448,20311
19826,20311
19826,21688
18448,21688
" /> 
<polyline style="fill-rule:evenodd;"
points="19629,23539
19629,22161
21007,22161
21007,23539
19629,23539
" /> 
<polyline style="fill-rule:evenodd;"
points="26394,21973
26905,21973
26905,22563
26394,22563
26394,21973
" /> 
<polyline style="fill-rule:evenodd;"
points="26394,23036
26905,23036
26905,23626
26394,23626
26394,23036
" /> 
<polyline style="fill-rule:evenodd;"
points="32165,25665
32834,25665
32834,26334
32165,26334
32165,25665
" /> 
</g>
<g style="fill:#000000; fill-opacity:1.0; 
stroke:#000000; stroke-width:669.291; stroke-opacity:1; 
stroke-linecap:round; stroke-linejoin:round;">
</g>
<g style="fill:#000000; fill-opacity:0.0; 
stroke:#000000; stroke-width:669.291; stroke-opacity:1; 
stroke-linecap:round; stroke-linejoin:round;">
<path d="M30500 26000
L30500 26000
" />
</g>
<g style="fill:#000000; fill-opacity:0.0; 
stroke:#000000; stroke-width:0; stroke-opacity:1; 
stroke-linecap:round; stroke-linejoin:round;">
</g>
<g style="fill:#000000; fill-opacity:1.0; 
stroke:#000000; stroke-width:0; stroke-opacity:1; 
stroke-linecap:round; stroke-linejoin:round;">
<polyline style="fill-rule:evenodd;"
points="27764,23193
27764,22406
28394,22406
28394,23193
27764,23193
" /> 
<polyline style="fill-rule:evenodd;"
points="28905,22563
28905,22051
29535,22051
29535,22563
28905,22563
" /> 
<polyline style="fill-rule:evenodd;"
points="28905,23548
28905,23036
29535,23036
29535,23548
28905,23548
" /> 
<polyline style="fill-rule:evenodd;"
points="34386,22120
34386,23379
33323,23379
33323,22120
34386,22120
" /> 
<polyline style="fill-rule:evenodd;"
points="31276,22120
31276,23379
30213,23379
30213,22120
31276,22120
" /> 
<polyline style="fill-rule:evenodd;"
points="29303,19712
29796,19712
29796,20303
29303,20303
29303,19712
" /> 
<polyline style="fill-rule:evenodd;"
points="29303,20696
29796,20696
29796,21287
29303,21287
29303,20696
" /> 
<polyline style="fill-rule:evenodd;"
points="21041,17935
20264,17158
21077,16346
21853,17122
21041,17935
" /> 
<polyline style="fill-rule:evenodd;"
points="25322,13653
24546,12877
25358,12064
26135,12841
25322,13653
" /> 
<polyline style="fill-rule:evenodd;"
points="27131,17818
27131,17581
27742,17581
27742,17818
27131,17818
" /> 
<polyline style="fill-rule:evenodd;"
points="27131,18318
27131,18081
27742,18081
27742,18318
27131,18318
" /> 
<polyline style="fill-rule:evenodd;"
points="27131,18818
27131,18581
27742,18581
27742,18818
27131,18818
" /> 
<polyline style="fill-rule:evenodd;"
points="27131,19318
27131,19081
27742,19081
27742,19318
27131,19318
" /> 
<polyline style="fill-rule:evenodd;"
points="29257,19318
29257,19081
29868,19081
29868,19318
29257,19318
" /> 
<polyline style="fill-rule:evenodd;"
points="29257,18818
29257,18581
29868,18581
29868,18818
29257,18818
" /> 
<polyline style="fill-rule:evenodd;"
points="29257,18318
29257,18081
29868,18081
29868,18318
29257,18318
" /> 
<polyline style="fill-rule:evenodd;"
points="29257,17818
29257,17581
29868,17581
29868,17818
29257,17818
" /> 
<polyline style="fill-rule:evenodd;"
points="26203,17912
26696,17912
26696,18503
26203,18503
26203,17912
" /> 
<polyline style="fill-rule:evenodd;"
points="26203,18896
26696,18896
26696,19487
26203,19487
26203,18896
" /> 
<polyline style="fill-rule:evenodd;"
points="27145,16804
27145,16095
27854,16095
27854,16804
27145,16804
" /> 
</g>
<g style="fill:#000000; fill-opacity:1.0; 
stroke:#000000; stroke-width:708.661; stroke-opacity:1; 
stroke-linecap:round; stroke-linejoin:round;">
</g>
<g style="fill:#000000; fill-opacity:0.0; 
stroke:#000000; stroke-width:708.661; stroke-opacity:1; 
stroke-linecap:round; stroke-linejoin:round;">
<path d="M28500 16450
L28500 16450
" />
<path d="M29500 16450
L29500 16450
" />
</g>
<g style="fill:#000000; fill-opacity:0.0; 
stroke:#000000; stroke-width:0; stroke-opacity:1; 
stroke-linecap:round; stroke-linejoin:round;">
</g>
<g style="fill:#000000; fill-opacity:1.0; 
stroke:#000000; stroke-width:0; stroke-opacity:1; 
stroke-linecap:round; stroke-linejoin:round;">
<polyline style="fill-rule:evenodd;"
points="30957,15987
31942,15987
31942,16932
30957,16932
30957,15987
" /> 
<polyline style="fill-rule:evenodd;"
points="30957,18467
31942,18467
31942,19412
30957,19412
30957,18467
" /> 
<polyline style="fill-rule:evenodd;"
points="24168,18275
25231,18275
25231,19751
24168,19751
24168,18275
" /> 
<polyline style="fill-rule:evenodd;"
points="24168,21248
25231,21248
25231,22724
24168,22724
24168,21248
" /> 
<polyline style="fill-rule:evenodd;"
points="23084,26334
22415,26334
22415,25665
23084,25665
23084,26334
" /> 
</g>
<g style="fill:#000000; fill-opacity:1.0; 
stroke:#000000; stroke-width:669.291; stroke-opacity:1; 
stroke-linecap:round; stroke-linejoin:round;">
</g>
<g style="fill:#000000; fill-opacity:0.0; 
stroke:#000000; stroke-width:669.291; stroke-opacity:1; 
stroke-linecap:round; stroke-linejoin:round;">
<path d="M23750 26000
L23750 26000
" />
<path d="M24750 26000
L24750 26000
" />
</g>
<g style="fill:#000000; fill-opacity:0.0; 
stroke:#000000; stroke-width:0; stroke-opacity:1; 
stroke-linecap:round; stroke-linejoin:round;">
</g>
<g style="fill:#000000; fill-opacity:1.0; 
stroke:#000000; stroke-width:0; stroke-opacity:1; 
stroke-linecap:round; stroke-linejoin:round;">
<polyline style="fill-rule:evenodd;"
points="33614,21055
33614,19244
34401,19244
34401,21055
33614,21055
" /> 
<polyline style="fill-rule:evenodd;"
points="35898,21055
35898,19244
36685,19244
36685,21055
35898,21055
" /> 
<polyline style="fill-rule:evenodd;"
points="31203,13820
31203,14679
30603,14679
30603,13820
31203,13820
" /> 
<polyline style="fill-rule:evenodd;"
points="29596,13820
29596,14679
28996,14679
28996,13820
29596,13820
" /> 
<polyline style="fill-rule:evenodd;"
points="34062,15657
34062,16642
32487,16642
32487,15657
34062,15657
" /> 
<polyline style="fill-rule:evenodd;"
points="37212,15657
37212,16642
35637,16642
35637,15657
37212,15657
" /> 
<polyline style="fill-rule:evenodd;"
points="19429,18806
18366,18806
18366,17330
19429,17330
19429,18806
" /> 
<polyline style="fill-rule:evenodd;"
points="19429,15833
18366,15833
18366,14357
19429,14357
19429,15833
" /> 
<circle cx="18916" cy="16522" r="250" /> 
</g>
<g style="fill:#000000; fill-opacity:1.0; 
stroke:#000000; stroke-width:39.3701; stroke-opacity:1; 
stroke-linecap:round; stroke-linejoin:round;">
</g>
<g style="fill:#000000; fill-opacity:1.0; 
stroke:#000000; stroke-width:0; stroke-opacity:1; 
stroke-linecap:round; stroke-linejoin:round;">
<circle cx="31750" cy="19750" r="200" /> 
</g>
<g style="fill:#000000; fill-opacity:1.0; 
stroke:#000000; stroke-width:39.3701; stroke-opacity:1; 
stroke-linecap:round; stroke-linejoin:round;">
</g>
<g style="fill:#000000; fill-opacity:1.0; 
stroke:#000000; stroke-width:0; stroke-opacity:1; 
stroke-linecap:round; stroke-linejoin:round;">
<circle cx="31000" cy="19750" r="200" /> 
</g>
<g style="fill:#000000; fill-opacity:1.0; 
stroke:#000000; stroke-width:39.3701; stroke-opacity:1; 
stroke-linecap:round; stroke-linejoin:round;">
</g>
<g style="fill:#000000; fill-opacity:1.0; 
stroke:#000000; stroke-width:0; stroke-opacity:1; 
stroke-linecap:round; stroke-linejoin:round;">
<circle cx="31000" cy="20250" r="200" /> 
</g>
<g style="fill:#000000; fill-opacity:1.0; 
stroke:#000000; stroke-width:39.3701; stroke-opacity:1; 
stroke-linecap:round; stroke-linejoin:round;">
</g>
<g style="fill:#000000; fill-opacity:1.0; 
stroke:#000000; stroke-width:0; stroke-opacity:1; 
stroke-linecap:round; stroke-linejoin:round;">
<circle cx="31750" cy="20250" r="200" /> 
</g>
<g style="fill:#000000; fill-opacity:1.0; 
stroke:#000000; stroke-width:39.3701; stroke-opacity:1; 
stroke-linecap:round; stroke-linejoin:round;">
</g>
<g style="fill:#000000; fill-opacity:1.0; 
stroke:#000000; stroke-width:0; stroke-opacity:1; 
stroke-linecap:round; stroke-linejoin:round;">
<circle cx="31750" cy="20750" r="200" /> 
</g>
<g style="fill:#000000; fill-opacity:1.0; 
stroke:#000000; stroke-width:39.3701; stroke-opacity:1; 
stroke-linecap:round; stroke-linejoin:round;">
</g>
<g style="fill:#000000; fill-opacity:1.0; 
stroke:#000000; stroke-width:0; stroke-opacity:1; 
stroke-linecap:round; stroke-linejoin:round;">
<circle cx="31000" cy="20750" r="200" /> 
</g>
<g style="fill:#000000; fill-opacity:1.0; 
stroke:#000000; stroke-width:39.3701; stroke-opacity:1; 
stroke-linecap:round; stroke-linejoin:round;">
</g>
<g style="fill:#000000; fill-opacity:1.0; 
stroke:#000000; stroke-width:0; stroke-opacity:1; 
stroke-linecap:round; stroke-linejoin:round;">
<circle cx="26650" cy="24050" r="118.11" /> 
</g>
<g style="fill:#000000; fill-opacity:1.0; 
stroke:#000000; stroke-width:39.3701; stroke-opacity:1; 
stroke-linecap:round; stroke-linejoin:round;">
</g>
<g style="fill:#000000; fill-opacity:1.0; 
stroke:#000000; stroke-width:0; stroke-opacity:1; 
stroke-linecap:round; stroke-linejoin:round;">
<circle cx="24700" cy="23450" r="118.11" /> 
</g>
<g style="fill:#000000; fill-opacity:1.0; 
stroke:#000000; stroke-width:39.3701; stroke-opacity:1; 
stroke-linecap:round; stroke-linejoin:round;">
</g>
<g style="fill:#000000; fill-opacity:1.0; 
stroke:#000000; stroke-width:0; stroke-opacity:1; 
stroke-linecap:round; stroke-linejoin:round;">
<circle cx="30200" cy="21000" r="200" /> 
</g>
<g style="fill:#000000; fill-opacity:1.0; 
stroke:#000000; stroke-width:39.3701; stroke-opacity:1; 
stroke-linecap:round; stroke-linejoin:round;">
</g>
<g style="fill:#000000; fill-opacity:1.0; 
stroke:#000000; stroke-width:0; stroke-opacity:1; 
stroke-linecap:round; stroke-linejoin:round;">
<circle cx="26450" cy="19900" r="200" /> 
</g>
<g style="fill:#000000; fill-opacity:1.0; 
stroke:#000000; stroke-width:39.3701; stroke-opacity:1; 
stroke-linecap:round; stroke-linejoin:round;">
</g>
<g style="fill:#000000; fill-opacity:1.0; 
stroke:#000000; stroke-width:0; stroke-opacity:1; 
stroke-linecap:round; stroke-linejoin:round;">
<circle cx="37000" cy="17000" r="200" /> 
</g>
<g style="fill:#000000; fill-opacity:1.0; 
stroke:#000000; stroke-width:39.3701; stroke-opacity:1; 
stroke-linecap:round; stroke-linejoin:round;">
</g>
<g style="fill:#000000; fill-opacity:1.0; 
stroke:#000000; stroke-width:0; stroke-opacity:1; 
stroke-linecap:round; stroke-linejoin:round;">
<circle cx="37000" cy="17600" r="200" /> 
</g>
<g style="fill:#000000; fill-opacity:1.0; 
stroke:#000000; stroke-width:39.3701; stroke-opacity:1; 
stroke-linecap:round; stroke-linejoin:round;">
</g>
<g style="fill:#000000; fill-opacity:1.0; 
stroke:#000000; stroke-width:0; stroke-opacity:1; 
stroke-linecap:round; stroke-linejoin:round;">
<circle cx="36400" cy="17600" r="200" /> 
</g>
<g style="fill:#000000; fill-opacity:1.0; 
stroke:#000000; stroke-width:39.3701; stroke-opacity:1; 
stroke-linecap:round; stroke-linejoin:round;">
</g>
<g style="fill:#000000; fill-opacity:1.0; 
stroke:#000000; stroke-width:0; stroke-opacity:1; 
stroke-linecap:round; stroke-linejoin:round;">
<circle cx="35800" cy="17600" r="200" /> 
</g>
<g style="fill:#000000; fill-opacity:1.0; 
stroke:#000000; stroke-width:39.3701; stroke-opacity:1; 
stroke-linecap:round; stroke-linejoin:round;">
</g>
<g style="fill:#000000; fill-opacity:1.0; 
stroke:#000000; stroke-width:0; stroke-opacity:1; 
stroke-linecap:round; stroke-linejoin:round;">
<circle cx="35800" cy="17000" r="200" /> 
</g>
<g style="fill:#000000; fill-opacity:1.0; 
stroke:#000000; stroke-width:39.3701; stroke-opacity:1; 
stroke-linecap:round; stroke-linejoin:round;">
</g>
<g style="fill:#000000; fill-opacity:1.0; 
stroke:#000000; stroke-width:0; stroke-opacity:1; 
stroke-linecap:round; stroke-linejoin:round;">
<circle cx="36400" cy="17000" r="200" /> 
</g>
<g style="fill:#000000; fill-opacity:1.0; 
stroke:#000000; stroke-width:39.3701; stroke-opacity:1; 
stroke-linecap:round; stroke-linejoin:round;">
</g>
<g style="fill:#000000; fill-opacity:1.0; 
stroke:#000000; stroke-width:0; stroke-opacity:1; 
stroke-linecap:round; stroke-linejoin:round;">
<circle cx="37000" cy="15200" r="200" /> 
</g>
<g style="fill:#000000; fill-opacity:1.0; 
stroke:#000000; stroke-width:39.3701; stroke-opacity:1; 
stroke-linecap:round; stroke-linejoin:round;">
</g>
<g style="fill:#000000; fill-opacity:1.0; 
stroke:#000000; stroke-width:0; stroke-opacity:1; 
stroke-linecap:round; stroke-linejoin:round;">
<circle cx="37000" cy="14600" r="200" /> 
</g>
<g style="fill:#000000; fill-opacity:1.0; 
stroke:#000000; stroke-width:39.3701; stroke-opacity:1; 
stroke-linecap:round; stroke-linejoin:round;">
</g>
<g style="fill:#000000; fill-opacity:1.0; 
stroke:#000000; stroke-width:0; stroke-opacity:1; 
stroke-linecap:round; stroke-linejoin:round;">
<circle cx="36400" cy="14600" r="200" /> 
</g>
<g style="fill:#000000; fill-opacity:1.0; 
stroke:#000000; stroke-width:39.3701; stroke-opacity:1; 
stroke-linecap:round; stroke-linejoin:round;">
</g>
<g style="fill:#000000; fill-opacity:1.0; 
stroke:#000000; stroke-width:0; stroke-opacity:1; 
stroke-linecap:round; stroke-linejoin:round;">
<circle cx="35800" cy="14600" r="200" /> 
</g>
<g style="fill:#000000; fill-opacity:1.0; 
stroke:#000000; stroke-width:39.3701; stroke-opacity:1; 
stroke-linecap:round; stroke-linejoin:round;">
</g>
<g style="fill:#000000; fill-opacity:1.0; 
stroke:#000000; stroke-width:0; stroke-opacity:1; 
stroke-linecap:round; stroke-linejoin:round;">
<circle cx="35800" cy="15200" r="200" /> 
</g>
<g style="fill:#000000; fill-opacity:1.0; 
stroke:#000000; stroke-width:39.3701; stroke-opacity:1; 
stroke-linecap:round; stroke-linejoin:round;">
</g>
<g style="fill:#000000; fill-opacity:1.0; 
stroke:#000000; stroke-width:0; stroke-opacity:1; 
stroke-linecap:round; stroke-linejoin:round;">
<circle cx="36400" cy="15200" r="200" /> 
</g>
<g style="fill:#000000; fill-opacity:1.0; 
stroke:#000000; stroke-width:39.3701; stroke-opacity:1; 
stroke-linecap:round; stroke-linejoin:round;">
</g>
<g style="fill:#000000; fill-opacity:1.0; 
stroke:#000000; stroke-width:1200; stroke-opacity:1; 
stroke-linecap:round; stroke-linejoin:round;">
</g>
<g style="fill:#000000; fill-opacity:0.0; 
stroke:#000000; stroke-width:1200; stroke-opacity:1; 
stroke-linecap:round; stroke-linejoin:round;">
<path d="M18898 15095
L18898 16504
" />
<path d="M18898 16504
L18916 16522
" />
</g>
<g style="fill:#000000; fill-opacity:0.0; 
stroke:#000000; stroke-width:200; stroke-opacity:1; 
stroke-linecap:round; stroke-linejoin:round;">
<path d="M31450 19450
L31750 19750
" />
<path d="M31450 18940
L31450 19450
" />
<path d="M31000 19750
L31000 20250
" />
<path d="M31750 20250
L31750 20750
" />
</g>
<g style="fill:#000000; fill-opacity:0.0; 
stroke:#000000; stroke-width:400; stroke-opacity:1; 
stroke-linecap:round; stroke-linejoin:round;">
<path d="M26650 23331
L26650 24050
" />
</g>
<g style="fill:#000000; fill-opacity:0.0; 
stroke:#000000; stroke-width:600; stroke-opacity:1; 
stroke-linecap:round; stroke-linejoin:round;">
<path d="M24700 21986
L24700 23450
" />
</g>
<g style="fill:#000000; fill-opacity:0.0; 
stroke:#000000; stroke-width:400; stroke-opacity:1; 
stroke-linecap:round; stroke-linejoin:round;">
<path d="M29550 20992
L30192 20992
" />
<path d="M30192 20992
L30200 21000
" />
<path d="M26450 19192
L26450 19900
" />
</g>
<g style="fill:#000000; fill-opacity:0.0; 
stroke:#000000; stroke-width:200; stroke-opacity:1; 
stroke-linecap:round; stroke-linejoin:round;">
<path d="M36400 17600
L37000 17600
" />
<path d="M35800 17000
L35800 17600
" />
<path d="M36424 16150
L36424 16975
" />
<path d="M36424 16975
L36400 17000
" />
<path d="M36400 14600
L37000 14600
" />
<path d="M35800 15200
L35800 14600
" />
<path d="M36424 16150
L36424 15224
" />
<path d="M36424 15224
L36400 15200
" />
</g>
<g style="fill:#000000; fill-opacity:0.0; 
stroke:#000000; stroke-width:400; stroke-opacity:1; 
stroke-linecap:round; stroke-linejoin:round;">
<path d="M29562 19200
L29562 19994
" />
<path d="M29562 19994
L29550 20007
" />
</g>
<g style="fill:#000000; fill-opacity:0.0; 
stroke:#000000; stroke-width:1500; stroke-opacity:1; 
stroke-linecap:round; stroke-linejoin:round;">
<path d="M33275 16150
L34000 16874
" />
<path d="M34000 16874
L34000 20141
" />
<path d="M34000 20141
L34008 20150
" />
<path d="M32500 26000
L32500 24105
" />
<path d="M32500 24105
L33855 22750
" />
<path d="M34008 20150
L34008 22596
" />
<path d="M34008 22596
L33855 22750
" />
<path d="M31103 14250
L32703 14250
" />
<path d="M32703 14250
L33275 14822
" />
<path d="M33275 14822
L33275 16150
" />
<path d="M29096 14250
L28500 14250
" />
<path d="M28500 14250
L26731 14250
" />
</g>
<g style="fill:#000000; fill-opacity:0.0; 
stroke:#000000; stroke-width:800; stroke-opacity:1; 
stroke-linecap:round; stroke-linejoin:round;">
<path d="M28500 16450
L28500 14250
" />
</g>
<g style="fill:#000000; fill-opacity:0.0; 
stroke:#000000; stroke-width:1500; stroke-opacity:1; 
stroke-linecap:round; stroke-linejoin:round;">
<path d="M26731 14250
L25340 12859
" />
</g>
<g style="fill:#000000; fill-opacity:0.0; 
stroke:#000000; stroke-width:400; stroke-opacity:1; 
stroke-linecap:round; stroke-linejoin:round;">
<path d="M26650 22268
L27547 22268
" />
<path d="M27547 22268
L28079 22800
" />
<path d="M29220 23292
L28571 23292
" />
<path d="M28571 23292
L28079 22800
" />
<path d="M29220 22307
L29512 22600
" />
<path d="M29512 22600
L30594 22600
" />
<path d="M30594 22600
L30744 22750
" />
<path d="M28500 21646
L28500 19057
" />
<path d="M28500 19057
L28142 18700
" />
<path d="M28142 18700
L27437 18700
" />
<path d="M29220 22307
L29161 22307
" />
<path d="M29161 22307
L28500 21646
" />
<path d="M29562 17700
L31000 17700
" />
<path d="M31000 17700
L31450 17250
" />
<path d="M31450 17250
L31450 16459
" />
</g>
<g style="fill:#000000; fill-opacity:0.0; 
stroke:#000000; stroke-width:1000; stroke-opacity:1; 
stroke-linecap:round; stroke-linejoin:round;">
<path d="M31450 16459
L29588 16459
" />
<path d="M29588 16459
L29578 16450
" />
</g>
<g style="fill:#000000; fill-opacity:0.0; 
stroke:#000000; stroke-width:1500; stroke-opacity:1; 
stroke-linecap:round; stroke-linejoin:round;">
<path d="M21059 17140
L21059 18110
" />
<path d="M21059 18110
L21059 19000
" />
</g>
<g style="fill:#000000; fill-opacity:0.0; 
stroke:#000000; stroke-width:1200; stroke-opacity:1; 
stroke-linecap:round; stroke-linejoin:round;">
<path d="M18898 18068
L21017 18068
" />
</g>
<g style="fill:#000000; fill-opacity:0.0; 
stroke:#000000; stroke-width:1500; stroke-opacity:1; 
stroke-linecap:round; stroke-linejoin:round;">
<path d="M21017 18068
L21059 18110
" />
</g>
<g style="fill:#000000; fill-opacity:0.0; 
stroke:#000000; stroke-width:800; stroke-opacity:1; 
stroke-linecap:round; stroke-linejoin:round;">
<path d="M24700 19013
L25505 18207
" />
<path d="M25505 18207
L26450 18207
" />
</g>
<g style="fill:#000000; fill-opacity:0.0; 
stroke:#000000; stroke-width:400; stroke-opacity:1; 
stroke-linecap:round; stroke-linejoin:round;">
<path d="M27437 18200
L26457 18200
" />
<path d="M26457 18200
L26450 18207
" />
</g>
<g style="fill:#000000; fill-opacity:0.0; 
stroke:#000000; stroke-width:1500; stroke-opacity:1; 
stroke-linecap:round; stroke-linejoin:round;">
<path d="M21059 19000
L21059 20559
" />
</g>
<g style="fill:#000000; fill-opacity:0.0; 
stroke:#000000; stroke-width:1000; stroke-opacity:1; 
stroke-linecap:round; stroke-linejoin:round;">
<path d="M24700 19013
L21072 19013
" />
</g>
<g style="fill:#000000; fill-opacity:0.0; 
stroke:#000000; stroke-width:800; stroke-opacity:1; 
stroke-linecap:round; stroke-linejoin:round;">
<path d="M21072 19013
L21059 19000
" />
</g>
<g style="fill:#000000; fill-opacity:0.0; 
stroke:#000000; stroke-width:600; stroke-opacity:1; 
stroke-linecap:round; stroke-linejoin:round;">
<path d="M22750 26000
L22750 22250
" />
<path d="M22750 22250
L21500 21000
" />
</g>
<g style="fill:#000000; fill-opacity:0.0; 
stroke:#000000; stroke-width:1500; stroke-opacity:1; 
stroke-linecap:round; stroke-linejoin:round;">
<path d="M21059 20559
L21500 21000
" />
</g>
<g style="fill:#000000; fill-opacity:0.0; 
stroke:#000000; stroke-width:400; stroke-opacity:1; 
stroke-linecap:round; stroke-linejoin:round;">
<path d="M23750 26000
L23750 25200
" />
<path d="M23750 25200
L24250 24700
" />
<path d="M24250 24700
L25050 24700
" />
<path d="M25050 24700
L25750 24000
" />
<path d="M25750 24000
L25750 21650
" />
<path d="M25750 21650
L27437 19962
" />
<path d="M27437 19962
L27437 19200
" />
</g>
<g style="fill:#000000; fill-opacity:1.0; 
stroke:#000000; stroke-width:100; stroke-opacity:1; 
stroke-linecap:round; stroke-linejoin:round;">
<polyline style="fill-rule:evenodd;"
points="27850,16120
27850,17729
27779,17800
27170,17800
27100,17729
27100,16120
27170,16050
27779,16050
27850,16120
" /> 
<polyline style="fill-rule:evenodd;"
points="37250,14270
37250,21279
37079,21450
35720,21450
35550,21279
35550,14270
35720,14100
37079,14100
37250,14270
" /> 
<polyline style="fill-rule:evenodd;"
points="30649,18099
30649,18099
31049,18100
31879,18100
32050,18270
32050,20829
31879,21000
30920,21000
30750,20829
30750,19050
30746,19030
30735,19014
30535,18813
30518,18802
30500,18799
29360,18794
29190,18623
29190,18264
29360,18094
30649,18099
" /> 
</g> 
</svg>
