<?xml version="1.0" standalone="no"?>
 <!DOCTYPE svg PUBLIC "-//W3C//DTD SVG 1.1//EN" 
 "http://www.w3.org/Graphics/SVG/1.1/DTD/svg11.dtd"> 
<svg xmlns="http://www.w3.org/2000/svg" version="1.1" 
    width="27.94cm" height="21.59cm" viewBox="0 0 110000 85000 ">
<title>SVG Picture created as NixiePowerSupply-F.Mask.svg date 2017/05/06 16:39:10 </title>
  <desc>Picture generated by PCBNEW </desc>
<g style="fill:#000000; fill-opacity:1;stroke:#000000; stroke-opacity:1;
stroke-linecap:round; stroke-linejoin:round; "
 transform="translate(0 0) scale(1 1)">
</g>
<g style="fill:#000000; fill-opacity:0.0; 
stroke:#000000; stroke-width:-0.000393701; stroke-opacity:1; 
stroke-linecap:round; stroke-linejoin:round;">
</g>
<g style="fill:#000000; fill-opacity:0.0; 
stroke:#000000; stroke-width:0; stroke-opacity:1; 
stroke-linecap:round; stroke-linejoin:round;">
</g>
<g style="fill:#000000; fill-opacity:1.0; 
stroke:#000000; stroke-width:0; stroke-opacity:1; 
stroke-linecap:round; stroke-linejoin:round;">
<polyline style="fill-rule:evenodd;"
points="20811,21688
20811,20311
22188,20311
22188,21688
20811,21688
" /> 
<polyline style="fill-rule:evenodd;"
points="18448,21688
18448,20311
19826,20311
19826,21688
18448,21688
" /> 
<polyline style="fill-rule:evenodd;"
points="19629,23539
19629,22161
21007,22161
21007,23539
19629,23539
" /> 
<polyline style="fill-rule:evenodd;"
points="26394,21973
26905,21973
26905,22563
26394,22563
26394,21973
" /> 
<polyline style="fill-rule:evenodd;"
points="26394,23036
26905,23036
26905,23626
26394,23626
26394,23036
" /> 
<polyline style="fill-rule:evenodd;"
points="32165,25665
32834,25665
32834,26334
32165,26334
32165,25665
" /> 
</g>
<g style="fill:#000000; fill-opacity:1.0; 
stroke:#000000; stroke-width:669.291; stroke-opacity:1; 
stroke-linecap:round; stroke-linejoin:round;">
</g>
<g style="fill:#000000; fill-opacity:0.0; 
stroke:#000000; stroke-width:669.291; stroke-opacity:1; 
stroke-linecap:round; stroke-linejoin:round;">
<path d="M30500 26000
L30500 26000
" />
</g>
<g style="fill:#000000; fill-opacity:0.0; 
stroke:#000000; stroke-width:0; stroke-opacity:1; 
stroke-linecap:round; stroke-linejoin:round;">
</g>
<g style="fill:#000000; fill-opacity:1.0; 
stroke:#000000; stroke-width:0; stroke-opacity:1; 
stroke-linecap:round; stroke-linejoin:round;">
<polyline style="fill-rule:evenodd;"
points="27764,23193
27764,22406
28394,22406
28394,23193
27764,23193
" /> 
<polyline style="fill-rule:evenodd;"
points="28905,22563
28905,22051
29535,22051
29535,22563
28905,22563
" /> 
<polyline style="fill-rule:evenodd;"
points="28905,23548
28905,23036
29535,23036
29535,23548
28905,23548
" /> 
<polyline style="fill-rule:evenodd;"
points="34386,22120
34386,23379
33323,23379
33323,22120
34386,22120
" /> 
<polyline style="fill-rule:evenodd;"
points="31276,22120
31276,23379
30213,23379
30213,22120
31276,22120
" /> 
<polyline style="fill-rule:evenodd;"
points="29303,19712
29796,19712
29796,20303
29303,20303
29303,19712
" /> 
<polyline style="fill-rule:evenodd;"
points="29303,20696
29796,20696
29796,21287
29303,21287
29303,20696
" /> 
<polyline style="fill-rule:evenodd;"
points="21041,17935
20264,17158
21077,16346
21853,17122
21041,17935
" /> 
<polyline style="fill-rule:evenodd;"
points="25322,13653
24546,12877
25358,12064
26135,12841
25322,13653
" /> 
<polyline style="fill-rule:evenodd;"
points="27131,17818
27131,17581
27742,17581
27742,17818
27131,17818
" /> 
<polyline style="fill-rule:evenodd;"
points="27131,18318
27131,18081
27742,18081
27742,18318
27131,18318
" /> 
<polyline style="fill-rule:evenodd;"
points="27131,18818
27131,18581
27742,18581
27742,18818
27131,18818
" /> 
<polyline style="fill-rule:evenodd;"
points="27131,19318
27131,19081
27742,19081
27742,19318
27131,19318
" /> 
<polyline style="fill-rule:evenodd;"
points="29257,19318
29257,19081
29868,19081
29868,19318
29257,19318
" /> 
<polyline style="fill-rule:evenodd;"
points="29257,18818
29257,18581
29868,18581
29868,18818
29257,18818
" /> 
<polyline style="fill-rule:evenodd;"
points="29257,18318
29257,18081
29868,18081
29868,18318
29257,18318
" /> 
<polyline style="fill-rule:evenodd;"
points="29257,17818
29257,17581
29868,17581
29868,17818
29257,17818
" /> 
<polyline style="fill-rule:evenodd;"
points="26203,17912
26696,17912
26696,18503
26203,18503
26203,17912
" /> 
<polyline style="fill-rule:evenodd;"
points="26203,18896
26696,18896
26696,19487
26203,19487
26203,18896
" /> 
<polyline style="fill-rule:evenodd;"
points="27145,16804
27145,16095
27854,16095
27854,16804
27145,16804
" /> 
</g>
<g style="fill:#000000; fill-opacity:1.0; 
stroke:#000000; stroke-width:708.661; stroke-opacity:1; 
stroke-linecap:round; stroke-linejoin:round;">
</g>
<g style="fill:#000000; fill-opacity:0.0; 
stroke:#000000; stroke-width:708.661; stroke-opacity:1; 
stroke-linecap:round; stroke-linejoin:round;">
<path d="M28500 16450
L28500 16450
" />
<path d="M29500 16450
L29500 16450
" />
</g>
<g style="fill:#000000; fill-opacity:1.0; 
stroke:#000000; stroke-width:0; stroke-opacity:1; 
stroke-linecap:round; stroke-linejoin:round;">
<circle cx="19500" cy="12000" r="728.346" /> 
</g>
<g style="fill:#000000; fill-opacity:1.0; 
stroke:#000000; stroke-width:39.3701; stroke-opacity:1; 
stroke-linecap:round; stroke-linejoin:round;">
</g>
<g style="fill:#000000; fill-opacity:1.0; 
stroke:#000000; stroke-width:0; stroke-opacity:1; 
stroke-linecap:round; stroke-linejoin:round;">
<polyline style="fill-rule:evenodd;"
points="30957,15987
31942,15987
31942,16932
30957,16932
30957,15987
" /> 
<polyline style="fill-rule:evenodd;"
points="30957,18467
31942,18467
31942,19412
30957,19412
30957,18467
" /> 
<polyline style="fill-rule:evenodd;"
points="24168,18275
25231,18275
25231,19751
24168,19751
24168,18275
" /> 
<polyline style="fill-rule:evenodd;"
points="24168,21248
25231,21248
25231,22724
24168,22724
24168,21248
" /> 
<polyline style="fill-rule:evenodd;"
points="23084,26334
22415,26334
22415,25665
23084,25665
23084,26334
" /> 
</g>
<g style="fill:#000000; fill-opacity:1.0; 
stroke:#000000; stroke-width:669.291; stroke-opacity:1; 
stroke-linecap:round; stroke-linejoin:round;">
</g>
<g style="fill:#000000; fill-opacity:0.0; 
stroke:#000000; stroke-width:669.291; stroke-opacity:1; 
stroke-linecap:round; stroke-linejoin:round;">
<path d="M23750 26000
L23750 26000
" />
<path d="M24750 26000
L24750 26000
" />
</g>
<g style="fill:#000000; fill-opacity:1.0; 
stroke:#000000; stroke-width:0; stroke-opacity:1; 
stroke-linecap:round; stroke-linejoin:round;">
<circle cx="19500" cy="25500" r="728.346" /> 
</g>
<g style="fill:#000000; fill-opacity:1.0; 
stroke:#000000; stroke-width:39.3701; stroke-opacity:1; 
stroke-linecap:round; stroke-linejoin:round;">
</g>
<g style="fill:#000000; fill-opacity:1.0; 
stroke:#000000; stroke-width:0; stroke-opacity:1; 
stroke-linecap:round; stroke-linejoin:round;">
<circle cx="35500" cy="25500" r="728.346" /> 
</g>
<g style="fill:#000000; fill-opacity:1.0; 
stroke:#000000; stroke-width:39.3701; stroke-opacity:1; 
stroke-linecap:round; stroke-linejoin:round;">
</g>
<g style="fill:#000000; fill-opacity:1.0; 
stroke:#000000; stroke-width:0; stroke-opacity:1; 
stroke-linecap:round; stroke-linejoin:round;">
<polyline style="fill-rule:evenodd;"
points="33614,21055
33614,19244
34401,19244
34401,21055
33614,21055
" /> 
<polyline style="fill-rule:evenodd;"
points="35898,21055
35898,19244
36685,19244
36685,21055
35898,21055
" /> 
<circle cx="35500" cy="12000" r="728.346" /> 
</g>
<g style="fill:#000000; fill-opacity:1.0; 
stroke:#000000; stroke-width:39.3701; stroke-opacity:1; 
stroke-linecap:round; stroke-linejoin:round;">
</g>
<g style="fill:#000000; fill-opacity:1.0; 
stroke:#000000; stroke-width:0; stroke-opacity:1; 
stroke-linecap:round; stroke-linejoin:round;">
<polyline style="fill-rule:evenodd;"
points="31203,13820
31203,14679
30603,14679
30603,13820
31203,13820
" /> 
<polyline style="fill-rule:evenodd;"
points="29596,13820
29596,14679
28996,14679
28996,13820
29596,13820
" /> 
<polyline style="fill-rule:evenodd;"
points="34062,15657
34062,16642
32487,16642
32487,15657
34062,15657
" /> 
<polyline style="fill-rule:evenodd;"
points="37212,15657
37212,16642
35637,16642
35637,15657
37212,15657
" /> 
<polyline style="fill-rule:evenodd;"
points="19429,18806
18366,18806
18366,17330
19429,17330
19429,18806
" /> 
<polyline style="fill-rule:evenodd;"
points="19429,15833
18366,15833
18366,14357
19429,14357
19429,15833
" /> 
</g> 
</svg>
