<?xml version="1.0" standalone="no"?>
 <!DOCTYPE svg PUBLIC "-//W3C//DTD SVG 1.1//EN" 
 "http://www.w3.org/Graphics/SVG/1.1/DTD/svg11.dtd"> 
<svg xmlns="http://www.w3.org/2000/svg" version="1.1" 
    width="29.7002cm" height="21.0007cm" viewBox="0 0 116930 82680 ">
<title>SVG Picture created as NixiePowerSupply-drl_map.svg date 2017/05/06 21:56:25 </title>
  <desc>Picture generated by PCBNEW </desc>
<g style="fill:#000000; fill-opacity:1;stroke:#000000; stroke-opacity:1;
stroke-linecap:round; stroke-linejoin:round; "
 transform="translate(0 0) scale(1 1)">
</g>
<g style="fill:#000000; fill-opacity:0.0; 
stroke:#000000; stroke-width:-0.000393701; stroke-opacity:1; 
stroke-linecap:round; stroke-linejoin:round;">
</g>
<g style="fill:#000000; fill-opacity:0.0; 
stroke:#000000; stroke-width:39.3701; stroke-opacity:1; 
stroke-linecap:round; stroke-linejoin:round;">
<path d="M37500 10000
L37500 27500
" />
<path d="M17500 27500
L17500 10000
" />
<path d="M37500 27500
L17500 27500
" />
<path d="M17500 10000
L37500 10000
" />
</g>
<g style="fill:#000000; fill-opacity:0.0; 
stroke:#000000; stroke-width:78.7402; stroke-opacity:1; 
stroke-linecap:round; stroke-linejoin:round;">
<path d="M24600 23350
L24800 23550
" />
<path d="M24800 23350
L24600 23550
" />
<path d="M26350 19800
L26550 20000
" />
<path d="M26550 19800
L26350 20000
" />
<path d="M26550 23950
L26750 24150
" />
<path d="M26750 23950
L26550 24150
" />
<path d="M30100 20900
L30300 21100
" />
<path d="M30300 20900
L30100 21100
" />
<path d="M30900 19650
L31100 19850
" />
<path d="M31100 19650
L30900 19850
" />
<path d="M30900 20150
L31100 20350
" />
<path d="M31100 20150
L30900 20350
" />
<path d="M30900 20650
L31100 20850
" />
<path d="M31100 20650
L30900 20850
" />
<path d="M31650 19650
L31850 19850
" />
<path d="M31850 19650
L31650 19850
" />
<path d="M31650 20150
L31850 20350
" />
<path d="M31850 20150
L31650 20350
" />
<path d="M31650 20650
L31850 20850
" />
<path d="M31850 20650
L31650 20850
" />
<path d="M35700 14500
L35900 14700
" />
<path d="M35900 14500
L35700 14700
" />
<path d="M35700 15100
L35900 15300
" />
<path d="M35900 15100
L35700 15300
" />
<path d="M35700 16900
L35900 17100
" />
<path d="M35900 16900
L35700 17100
" />
<path d="M35700 17500
L35900 17700
" />
<path d="M35900 17500
L35700 17700
" />
<path d="M36300 14500
L36500 14700
" />
<path d="M36500 14500
L36300 14700
" />
<path d="M36300 15100
L36500 15300
" />
<path d="M36500 15100
L36300 15300
" />
<path d="M36300 16900
L36500 17100
" />
<path d="M36500 16900
L36300 17100
" />
<path d="M36300 17500
L36500 17700
" />
<path d="M36500 17500
L36300 17700
" />
<path d="M36900 14500
L37100 14700
" />
<path d="M37100 14500
L36900 14700
" />
<path d="M36900 15100
L37100 15300
" />
<path d="M37100 15100
L36900 15300
" />
<path d="M36900 16900
L37100 17100
" />
<path d="M37100 16900
L36900 17100
" />
<path d="M36900 17500
L37100 17700
" />
<path d="M37100 17500
L36900 17700
" />
<circle cx="18916" cy="16522" r="125" /> 
<path d="M22750 25803
L22750 26196
" />
<path d="M22553 26000
L22946 26000
" />
<path d="M23750 25803
L23750 26196
" />
<path d="M23553 26000
L23946 26000
" />
<path d="M24750 25803
L24750 26196
" />
<path d="M24553 26000
L24946 26000
" />
<path d="M27500 16253
L27500 16646
" />
<path d="M27303 16450
L27696 16450
" />
<path d="M28500 16253
L28500 16646
" />
<path d="M28303 16450
L28696 16450
" />
<path d="M29500 16253
L29500 16646
" />
<path d="M29303 16450
L29696 16450
" />
<path d="M30500 25803
L30500 26196
" />
<path d="M30303 26000
L30696 26000
" />
<path d="M32500 25803
L32500 26196
" />
<path d="M32303 26000
L32696 26000
" />
<polyline fill="none;"
points="19555,21417
19555,20582
18720,20582
18720,21417
19555,21417
" /> 
<polyline fill="none;"
points="20736,23267
20736,22432
19901,22432
19901,23267
20736,23267
" /> 
<polyline fill="none;"
points="21917,21417
21917,20582
21082,20582
21082,21417
21917,21417
" /> 
</g>
<g style="fill:#000000; fill-opacity:0.0; 
stroke:#000000; stroke-width:118.11; stroke-opacity:1; 
stroke-linecap:round; stroke-linejoin:round;">
<path d="M18548 29353
L18548 28172
L18830 28172
L18998 28228
L19111 28340
L19167 28453
L19223 28678
L19223 28847
L19167 29071
L19111 29184
L18998 29296
L18830 29353
L18548 29353
" />
<path d="M19730 29353
L19730 28565
" />
<path d="M19730 28790
L19786 28678
L19842 28622
L19955 28565
L20067 28565
" />
<path d="M20461 29353
L20461 28565
" />
<path d="M20461 28172
L20404 28228
L20461 28284
L20517 28228
L20461 28172
L20461 28284
" />
<path d="M21192 29353
L21079 29296
L21023 29184
L21023 28172
" />
<path d="M21811 29353
L21698 29296
L21642 29184
L21642 28172
" />
<path d="M23160 29353
L23160 28172
L23554 29015
L23948 28172
L23948 29353
" />
<path d="M25016 29353
L25016 28734
L24960 28622
L24848 28565
L24623 28565
L24510 28622
" />
<path d="M25016 29296
L24904 29353
L24623 29353
L24510 29296
L24454 29184
L24454 29071
L24510 28959
L24623 28903
L24904 28903
L25016 28847
" />
<path d="M25579 28565
L25579 29746
" />
<path d="M25579 28622
L25691 28565
L25916 28565
L26029 28622
L26085 28678
L26141 28790
L26141 29128
L26085 29240
L26029 29296
L25916 29353
L25691 29353
L25579 29296
" />
<path d="M26647 29240
L26704 29296
L26647 29353
L26591 29296
L26647 29240
L26647 29353
" />
<path d="M26647 28622
L26704 28678
L26647 28734
L26591 28678
L26647 28622
L26647 28734
" />
<path d="M17280 31199
L17480 31399
" />
<path d="M17480 31199
L17280 31399
" />
<path d="M18773 30652
L18886 30652
L18998 30708
L19055 30764
L19111 30877
L19167 31102
L19167 31383
L19111 31608
L19055 31721
L18998 31777
L18886 31833
L18773 31833
L18661 31777
L18605 31721
L18548 31608
L18492 31383
L18492 31102
L18548 30877
L18605 30764
L18661 30708
L18773 30652
" />
<path d="M19673 31721
L19730 31777
L19673 31833
L19617 31777
L19673 31721
L19673 31833
" />
<path d="M20798 30652
L20236 30652
L20179 31214
L20236 31158
L20348 31102
L20629 31102
L20742 31158
L20798 31214
L20854 31327
L20854 31608
L20798 31721
L20742 31777
L20629 31833
L20348 31833
L20236 31777
L20179 31721
" />
<path d="M21979 31833
L21304 31833
" />
<path d="M21642 31833
L21642 30652
L21529 30821
L21417 30933
L21304 30989
" />
<path d="M22485 31833
L22485 31046
" />
<path d="M22485 31158
L22542 31102
L22654 31046
L22823 31046
L22935 31102
L22992 31214
L22992 31833
" />
<path d="M22992 31214
L23048 31102
L23160 31046
L23329 31046
L23442 31102
L23498 31214
L23498 31833
" />
<path d="M24060 31833
L24060 31046
" />
<path d="M24060 31158
L24116 31102
L24229 31046
L24398 31046
L24510 31102
L24566 31214
L24566 31833
" />
<path d="M24566 31214
L24623 31102
L24735 31046
L24904 31046
L25016 31102
L25073 31214
L25073 31833
" />
<path d="M27379 30596
L26366 32114
" />
<path d="M28897 30652
L29010 30652
L29122 30708
L29178 30764
L29235 30877
L29291 31102
L29291 31383
L29235 31608
L29178 31721
L29122 31777
L29010 31833
L28897 31833
L28785 31777
L28728 31721
L28672 31608
L28616 31383
L28616 31102
L28672 30877
L28728 30764
L28785 30708
L28897 30652
" />
<path d="M29797 31721
L29853 31777
L29797 31833
L29741 31777
L29797 31721
L29797 31833
" />
<path d="M30584 30652
L30697 30652
L30809 30708
L30866 30764
L30922 30877
L30978 31102
L30978 31383
L30922 31608
L30866 31721
L30809 31777
L30697 31833
L30584 31833
L30472 31777
L30416 31721
L30359 31608
L30303 31383
L30303 31102
L30359 30877
L30416 30764
L30472 30708
L30584 30652
" />
<path d="M31428 30764
L31484 30708
L31597 30652
L31878 30652
L31991 30708
L32047 30764
L32103 30877
L32103 30989
L32047 31158
L31372 31833
L32103 31833
" />
<path d="M32834 30652
L32947 30652
L33059 30708
L33115 30764
L33172 30877
L33228 31102
L33228 31383
L33172 31608
L33115 31721
L33059 31777
L32947 31833
L32834 31833
L32722 31777
L32665 31721
L32609 31608
L32553 31383
L32553 31102
L32609 30877
L32665 30764
L32722 30708
L32834 30652
" />
<path d="M33678 30652
L33678 30877
" />
<path d="M34128 30652
L34128 30877
" />
<path d="M35871 32283
L35815 32227
L35703 32058
L35646 31946
L35590 31777
L35534 31496
L35534 31271
L35590 30989
L35646 30821
L35703 30708
L35815 30539
L35871 30483
" />
<path d="M36265 30764
L36321 30708
L36434 30652
L36715 30652
L36827 30708
L36884 30764
L36940 30877
L36940 30989
L36884 31158
L36209 31833
L36940 31833
" />
<path d="M37390 30764
L37446 30708
L37559 30652
L37840 30652
L37952 30708
L38008 30764
L38065 30877
L38065 30989
L38008 31158
L37334 31833
L38065 31833
" />
<path d="M39471 31833
L39471 30652
" />
<path d="M39977 31833
L39977 31214
L39921 31102
L39808 31046
L39640 31046
L39527 31102
L39471 31158
" />
<path d="M40708 31833
L40596 31777
L40539 31721
L40483 31608
L40483 31271
L40539 31158
L40596 31102
L40708 31046
L40877 31046
L40989 31102
L41046 31158
L41102 31271
L41102 31608
L41046 31721
L40989 31777
L40877 31833
L40708 31833
" />
<path d="M41777 31833
L41664 31777
L41608 31664
L41608 30652
" />
<path d="M42677 31777
L42564 31833
L42339 31833
L42227 31777
L42170 31664
L42170 31214
L42227 31102
L42339 31046
L42564 31046
L42677 31102
L42733 31214
L42733 31327
L42170 31439
" />
<path d="M43183 31777
L43295 31833
L43520 31833
L43633 31777
L43689 31664
L43689 31608
L43633 31496
L43520 31439
L43352 31439
L43239 31383
L43183 31271
L43183 31214
L43239 31102
L43352 31046
L43520 31046
L43633 31102
" />
<path d="M44083 32283
L44139 32227
L44251 32058
L44308 31946
L44364 31777
L44420 31496
L44420 31271
L44364 30989
L44308 30821
L44251 30708
L44139 30539
L44083 30483
" />
<circle cx="17355.3" cy="32858.3" r="125" /> 
<path d="M18773 32211
L18886 32211
L18998 32267
L19055 32323
L19111 32436
L19167 32661
L19167 32942
L19111 33167
L19055 33280
L18998 33336
L18886 33392
L18773 33392
L18661 33336
L18605 33280
L18548 33167
L18492 32942
L18492 32661
L18548 32436
L18605 32323
L18661 32267
L18773 32211
" />
<path d="M19673 33280
L19730 33336
L19673 33392
L19617 33336
L19673 33280
L19673 33392
" />
<path d="M20742 32211
L20517 32211
L20404 32267
L20348 32323
L20236 32492
L20179 32717
L20179 33167
L20236 33280
L20292 33336
L20404 33392
L20629 33392
L20742 33336
L20798 33280
L20854 33167
L20854 32886
L20798 32773
L20742 32717
L20629 32661
L20404 32661
L20292 32717
L20236 32773
L20179 32886
" />
<path d="M21867 32605
L21867 33392
" />
<path d="M21586 32155
L21304 32998
L22035 32998
" />
<path d="M22485 33392
L22485 32605
" />
<path d="M22485 32717
L22542 32661
L22654 32605
L22823 32605
L22935 32661
L22992 32773
L22992 33392
" />
<path d="M22992 32773
L23048 32661
L23160 32605
L23329 32605
L23442 32661
L23498 32773
L23498 33392
" />
<path d="M24060 33392
L24060 32605
" />
<path d="M24060 32717
L24116 32661
L24229 32605
L24398 32605
L24510 32661
L24566 32773
L24566 33392
" />
<path d="M24566 32773
L24623 32661
L24735 32605
L24904 32605
L25016 32661
L25073 32773
L25073 33392
" />
<path d="M27379 32155
L26366 33673
" />
<path d="M28897 32211
L29010 32211
L29122 32267
L29178 32323
L29235 32436
L29291 32661
L29291 32942
L29235 33167
L29178 33280
L29122 33336
L29010 33392
L28897 33392
L28785 33336
L28728 33280
L28672 33167
L28616 32942
L28616 32661
L28672 32436
L28728 32323
L28785 32267
L28897 32211
" />
<path d="M29797 33280
L29853 33336
L29797 33392
L29741 33336
L29797 33280
L29797 33392
" />
<path d="M30584 32211
L30697 32211
L30809 32267
L30866 32323
L30922 32436
L30978 32661
L30978 32942
L30922 33167
L30866 33280
L30809 33336
L30697 33392
L30584 33392
L30472 33336
L30416 33280
L30359 33167
L30303 32942
L30303 32661
L30359 32436
L30416 32323
L30472 32267
L30584 32211
" />
<path d="M31428 32323
L31484 32267
L31597 32211
L31878 32211
L31991 32267
L32047 32323
L32103 32436
L32103 32548
L32047 32717
L31372 33392
L32103 33392
" />
<path d="M33172 32211
L32609 32211
L32553 32773
L32609 32717
L32722 32661
L33003 32661
L33115 32717
L33172 32773
L33228 32886
L33228 33167
L33172 33280
L33115 33336
L33003 33392
L32722 33392
L32609 33336
L32553 33280
" />
<path d="M33678 32211
L33678 32436
" />
<path d="M34128 32211
L34128 32436
" />
<path d="M35871 33842
L35815 33786
L35703 33617
L35646 33505
L35590 33336
L35534 33055
L35534 32830
L35590 32548
L35646 32380
L35703 32267
L35815 32098
L35871 32042
" />
<path d="M36940 33392
L36265 33392
" />
<path d="M36602 33392
L36602 32211
L36490 32380
L36377 32492
L36265 32548
" />
<path d="M38346 33392
L38346 32211
" />
<path d="M38852 33392
L38852 32773
L38796 32661
L38683 32605
L38515 32605
L38402 32661
L38346 32717
" />
<path d="M39583 33392
L39471 33336
L39415 33280
L39358 33167
L39358 32830
L39415 32717
L39471 32661
L39583 32605
L39752 32605
L39865 32661
L39921 32717
L39977 32830
L39977 33167
L39921 33280
L39865 33336
L39752 33392
L39583 33392
" />
<path d="M40652 33392
L40539 33336
L40483 33223
L40483 32211
" />
<path d="M41552 33336
L41439 33392
L41214 33392
L41102 33336
L41046 33223
L41046 32773
L41102 32661
L41214 32605
L41439 32605
L41552 32661
L41608 32773
L41608 32886
L41046 32998
" />
<path d="M42002 33842
L42058 33786
L42170 33617
L42227 33505
L42283 33336
L42339 33055
L42339 32830
L42283 32548
L42227 32380
L42170 32267
L42058 32098
L42002 32042
" />
<path d="M17283 34220
L17283 34614
" />
<path d="M17086 34417
L17480 34417
" />
<path d="M19167 34951
L18492 34951
" />
<path d="M18830 34951
L18830 33770
L18717 33939
L18605 34051
L18492 34107
" />
<path d="M19673 34839
L19730 34895
L19673 34951
L19617 34895
L19673 34839
L19673 34951
" />
<path d="M20461 33770
L20573 33770
L20686 33826
L20742 33883
L20798 33995
L20854 34220
L20854 34501
L20798 34726
L20742 34839
L20686 34895
L20573 34951
L20461 34951
L20348 34895
L20292 34839
L20236 34726
L20179 34501
L20179 34220
L20236 33995
L20292 33883
L20348 33826
L20461 33770
" />
<path d="M21586 33770
L21698 33770
L21811 33826
L21867 33883
L21923 33995
L21979 34220
L21979 34501
L21923 34726
L21867 34839
L21811 34895
L21698 34951
L21586 34951
L21473 34895
L21417 34839
L21361 34726
L21304 34501
L21304 34220
L21361 33995
L21417 33883
L21473 33826
L21586 33770
" />
<path d="M22485 34951
L22485 34164
" />
<path d="M22485 34276
L22542 34220
L22654 34164
L22823 34164
L22935 34220
L22992 34332
L22992 34951
" />
<path d="M22992 34332
L23048 34220
L23160 34164
L23329 34164
L23442 34220
L23498 34332
L23498 34951
" />
<path d="M24060 34951
L24060 34164
" />
<path d="M24060 34276
L24116 34220
L24229 34164
L24398 34164
L24510 34220
L24566 34332
L24566 34951
" />
<path d="M24566 34332
L24623 34220
L24735 34164
L24904 34164
L25016 34220
L25073 34332
L25073 34951
" />
<path d="M27379 33714
L26366 35232
" />
<path d="M28897 33770
L29010 33770
L29122 33826
L29178 33883
L29235 33995
L29291 34220
L29291 34501
L29235 34726
L29178 34839
L29122 34895
L29010 34951
L28897 34951
L28785 34895
L28728 34839
L28672 34726
L28616 34501
L28616 34220
L28672 33995
L28728 33883
L28785 33826
L28897 33770
" />
<path d="M29797 34839
L29853 34895
L29797 34951
L29741 34895
L29797 34839
L29797 34951
" />
<path d="M30584 33770
L30697 33770
L30809 33826
L30866 33883
L30922 33995
L30978 34220
L30978 34501
L30922 34726
L30866 34839
L30809 34895
L30697 34951
L30584 34951
L30472 34895
L30416 34839
L30359 34726
L30303 34501
L30303 34220
L30359 33995
L30416 33883
L30472 33826
L30584 33770
" />
<path d="M31372 33770
L32103 33770
L31709 34220
L31878 34220
L31991 34276
L32047 34332
L32103 34445
L32103 34726
L32047 34839
L31991 34895
L31878 34951
L31541 34951
L31428 34895
L31372 34839
" />
<path d="M32665 34951
L32890 34951
L33003 34895
L33059 34839
L33172 34670
L33228 34445
L33228 33995
L33172 33883
L33115 33826
L33003 33770
L32778 33770
L32665 33826
L32609 33883
L32553 33995
L32553 34276
L32609 34389
L32665 34445
L32778 34501
L33003 34501
L33115 34445
L33172 34389
L33228 34276
" />
<path d="M33678 33770
L33678 33995
" />
<path d="M34128 33770
L34128 33995
" />
<path d="M35871 35401
L35815 35345
L35703 35176
L35646 35064
L35590 34895
L35534 34614
L35534 34389
L35590 34107
L35646 33939
L35703 33826
L35815 33658
L35871 33601
" />
<path d="M36490 34276
L36377 34220
L36321 34164
L36265 34051
L36265 33995
L36321 33883
L36377 33826
L36490 33770
L36715 33770
L36827 33826
L36884 33883
L36940 33995
L36940 34051
L36884 34164
L36827 34220
L36715 34276
L36490 34276
L36377 34332
L36321 34389
L36265 34501
L36265 34726
L36321 34839
L36377 34895
L36490 34951
L36715 34951
L36827 34895
L36884 34839
L36940 34726
L36940 34501
L36884 34389
L36827 34332
L36715 34276
" />
<path d="M38346 34951
L38346 33770
" />
<path d="M38852 34951
L38852 34332
L38796 34220
L38683 34164
L38515 34164
L38402 34220
L38346 34276
" />
<path d="M39583 34951
L39471 34895
L39415 34839
L39358 34726
L39358 34389
L39415 34276
L39471 34220
L39583 34164
L39752 34164
L39865 34220
L39921 34276
L39977 34389
L39977 34726
L39921 34839
L39865 34895
L39752 34951
L39583 34951
" />
<path d="M40652 34951
L40539 34895
L40483 34782
L40483 33770
" />
<path d="M41552 34895
L41439 34951
L41214 34951
L41102 34895
L41046 34782
L41046 34332
L41102 34220
L41214 34164
L41439 34164
L41552 34220
L41608 34332
L41608 34445
L41046 34557
" />
<path d="M42058 34895
L42170 34951
L42395 34951
L42508 34895
L42564 34782
L42564 34726
L42508 34614
L42395 34557
L42227 34557
L42114 34501
L42058 34389
L42058 34332
L42114 34220
L42227 34164
L42395 34164
L42508 34220
" />
<path d="M42958 35401
L43014 35345
L43127 35176
L43183 35064
L43239 34895
L43295 34614
L43295 34389
L43239 34107
L43183 33939
L43127 33826
L43014 33658
L42958 33601
" />
<polyline fill="none;"
points="17307,36393
17307,35558
16472,35558
16472,36393
17307,36393
" /> 
<path d="M18436 35329
L19167 35329
L18773 35779
L18942 35779
L19055 35835
L19111 35892
L19167 36004
L19167 36285
L19111 36398
L19055 36454
L18942 36510
L18605 36510
L18492 36454
L18436 36398
" />
<path d="M19673 36398
L19730 36454
L19673 36510
L19617 36454
L19673 36398
L19673 36510
" />
<path d="M20461 35329
L20573 35329
L20686 35385
L20742 35442
L20798 35554
L20854 35779
L20854 36060
L20798 36285
L20742 36398
L20686 36454
L20573 36510
L20461 36510
L20348 36454
L20292 36398
L20236 36285
L20179 36060
L20179 35779
L20236 35554
L20292 35442
L20348 35385
L20461 35329
" />
<path d="M21586 35329
L21698 35329
L21811 35385
L21867 35442
L21923 35554
L21979 35779
L21979 36060
L21923 36285
L21867 36398
L21811 36454
L21698 36510
L21586 36510
L21473 36454
L21417 36398
L21361 36285
L21304 36060
L21304 35779
L21361 35554
L21417 35442
L21473 35385
L21586 35329
" />
<path d="M22485 36510
L22485 35723
" />
<path d="M22485 35835
L22542 35779
L22654 35723
L22823 35723
L22935 35779
L22992 35892
L22992 36510
" />
<path d="M22992 35892
L23048 35779
L23160 35723
L23329 35723
L23442 35779
L23498 35892
L23498 36510
" />
<path d="M24060 36510
L24060 35723
" />
<path d="M24060 35835
L24116 35779
L24229 35723
L24398 35723
L24510 35779
L24566 35892
L24566 36510
" />
<path d="M24566 35892
L24623 35779
L24735 35723
L24904 35723
L25016 35779
L25073 35892
L25073 36510
" />
<path d="M27379 35273
L26366 36791
" />
<path d="M28897 35329
L29010 35329
L29122 35385
L29178 35442
L29235 35554
L29291 35779
L29291 36060
L29235 36285
L29178 36398
L29122 36454
L29010 36510
L28897 36510
L28785 36454
L28728 36398
L28672 36285
L28616 36060
L28616 35779
L28672 35554
L28728 35442
L28785 35385
L28897 35329
" />
<path d="M29797 36398
L29853 36454
L29797 36510
L29741 36454
L29797 36398
L29797 36510
" />
<path d="M30978 36510
L30303 36510
" />
<path d="M30641 36510
L30641 35329
L30528 35498
L30416 35610
L30303 35667
" />
<path d="M32103 36510
L31428 36510
" />
<path d="M31766 36510
L31766 35329
L31653 35498
L31541 35610
L31428 35667
" />
<path d="M32778 35835
L32665 35779
L32609 35723
L32553 35610
L32553 35554
L32609 35442
L32665 35385
L32778 35329
L33003 35329
L33115 35385
L33172 35442
L33228 35554
L33228 35610
L33172 35723
L33115 35779
L33003 35835
L32778 35835
L32665 35892
L32609 35948
L32553 36060
L32553 36285
L32609 36398
L32665 36454
L32778 36510
L33003 36510
L33115 36454
L33172 36398
L33228 36285
L33228 36060
L33172 35948
L33115 35892
L33003 35835
" />
<path d="M33678 35329
L33678 35554
" />
<path d="M34128 35329
L34128 35554
" />
<path d="M35871 36960
L35815 36904
L35703 36735
L35646 36623
L35590 36454
L35534 36173
L35534 35948
L35590 35667
L35646 35498
L35703 35385
L35815 35217
L35871 35160
" />
<path d="M36209 35329
L36940 35329
L36546 35779
L36715 35779
L36827 35835
L36884 35892
L36940 36004
L36940 36285
L36884 36398
L36827 36454
L36715 36510
L36377 36510
L36265 36454
L36209 36398
" />
<path d="M38346 36510
L38346 35329
" />
<path d="M38852 36510
L38852 35892
L38796 35779
L38683 35723
L38515 35723
L38402 35779
L38346 35835
" />
<path d="M39583 36510
L39471 36454
L39415 36398
L39358 36285
L39358 35948
L39415 35835
L39471 35779
L39583 35723
L39752 35723
L39865 35779
L39921 35835
L39977 35948
L39977 36285
L39921 36398
L39865 36454
L39752 36510
L39583 36510
" />
<path d="M40652 36510
L40539 36454
L40483 36341
L40483 35329
" />
<path d="M41552 36454
L41439 36510
L41214 36510
L41102 36454
L41046 36341
L41046 35892
L41102 35779
L41214 35723
L41439 35723
L41552 35779
L41608 35892
L41608 36004
L41046 36116
" />
<path d="M42058 36454
L42170 36510
L42395 36510
L42508 36454
L42564 36341
L42564 36285
L42508 36173
L42395 36116
L42227 36116
L42114 36060
L42058 35948
L42058 35892
L42114 35779
L42227 35723
L42395 35723
L42508 35779
" />
<path d="M42958 36960
L43014 36904
L43127 36735
L43183 36623
L43239 36454
L43295 36173
L43295 35948
L43239 35667
L43183 35498
L43127 35385
L43014 35217
L42958 35160
" />
</g> 
</svg>
