M48
;DRILL file {KiCad 4.0.6} date 05/06/17 21:56:24
;FORMAT={-:-/ absolute / metric / decimal}
FMAT,2
METRIC,TZ
T1C0.508
T2C0.635
T3C1.000
T4C3.000
%
G90
G05
M71
T1
X62.738Y-59.563
X67.183Y-50.546
X67.691Y-61.087
X76.708Y-53.34
X78.74Y-50.165
X78.74Y-51.435
X78.74Y-52.705
X80.645Y-50.165
X80.645Y-51.435
X80.645Y-52.705
X90.932Y-37.084
X90.932Y-38.608
X90.932Y-43.18
X90.932Y-44.704
X92.456Y-37.084
X92.456Y-38.608
X92.456Y-43.18
X92.456Y-44.704
X93.98Y-37.084
X93.98Y-38.608
X93.98Y-43.18
X93.98Y-44.704
T2
X48.047Y-41.966
T3
X57.785Y-66.04
X60.325Y-66.04
X62.865Y-66.04
X69.85Y-41.783
X72.39Y-41.783
X74.93Y-41.783
X77.47Y-66.04
X82.55Y-66.04
T4
X48.61Y-53.34
X51.61Y-58.04
X54.61Y-53.34
T0
M30
