<?xml version="1.0" standalone="no"?>
 <!DOCTYPE svg PUBLIC "-//W3C//DTD SVG 1.1//EN" 
 "http://www.w3.org/Graphics/SVG/1.1/DTD/svg11.dtd"> 
<svg xmlns="http://www.w3.org/2000/svg" version="1.1" 
    width="29.7002cm" height="21.0007cm" viewBox="0 0 116930 82680 ">
<title>SVG Picture created as NixiePowerSupply-NPTH-drl_map.svg date 2017/05/06 21:56:25 </title>
  <desc>Picture generated by PCBNEW </desc>
<g style="fill:#000000; fill-opacity:1;stroke:#000000; stroke-opacity:1;
stroke-linecap:round; stroke-linejoin:round; "
 transform="translate(0 0) scale(1 1)">
</g>
<g style="fill:#000000; fill-opacity:0.0; 
stroke:#000000; stroke-width:-0.000393701; stroke-opacity:1; 
stroke-linecap:round; stroke-linejoin:round;">
</g>
<g style="fill:#000000; fill-opacity:0.0; 
stroke:#000000; stroke-width:39.3701; stroke-opacity:1; 
stroke-linecap:round; stroke-linejoin:round;">
<path d="M37500 10000
L37500 27500
" />
<path d="M17500 27500
L17500 10000
" />
<path d="M37500 27500
L17500 27500
" />
<path d="M17500 10000
L37500 10000
" />
</g>
<g style="fill:#000000; fill-opacity:0.0; 
stroke:#000000; stroke-width:78.7402; stroke-opacity:1; 
stroke-linecap:round; stroke-linejoin:round;">
<path d="M18771 11271
L20228 12728
" />
<path d="M20228 11271
L18771 12728
" />
<path d="M18771 24771
L20228 26228
" />
<path d="M20228 24771
L18771 26228
" />
<path d="M34771 11271
L36228 12728
" />
<path d="M36228 11271
L34771 12728
" />
<path d="M34771 24771
L36228 26228
" />
<path d="M36228 24771
L34771 26228
" />
</g>
<g style="fill:#000000; fill-opacity:0.0; 
stroke:#000000; stroke-width:118.11; stroke-opacity:1; 
stroke-linecap:round; stroke-linejoin:round;">
<path d="M18548 29353
L18548 28172
L18830 28172
L18998 28228
L19111 28340
L19167 28453
L19223 28678
L19223 28847
L19167 29071
L19111 29184
L18998 29296
L18830 29353
L18548 29353
" />
<path d="M19730 29353
L19730 28565
" />
<path d="M19730 28790
L19786 28678
L19842 28622
L19955 28565
L20067 28565
" />
<path d="M20461 29353
L20461 28565
" />
<path d="M20461 28172
L20404 28228
L20461 28284
L20517 28228
L20461 28172
L20461 28284
" />
<path d="M21192 29353
L21079 29296
L21023 29184
L21023 28172
" />
<path d="M21811 29353
L21698 29296
L21642 29184
L21642 28172
" />
<path d="M23160 29353
L23160 28172
L23554 29015
L23948 28172
L23948 29353
" />
<path d="M25016 29353
L25016 28734
L24960 28622
L24848 28565
L24623 28565
L24510 28622
" />
<path d="M25016 29296
L24904 29353
L24623 29353
L24510 29296
L24454 29184
L24454 29071
L24510 28959
L24623 28903
L24904 28903
L25016 28847
" />
<path d="M25579 28565
L25579 29746
" />
<path d="M25579 28622
L25691 28565
L25916 28565
L26029 28622
L26085 28678
L26141 28790
L26141 29128
L26085 29240
L26029 29296
L25916 29353
L25691 29353
L25579 29296
" />
<path d="M26647 29240
L26704 29296
L26647 29353
L26591 29296
L26647 29240
L26647 29353
" />
<path d="M26647 28622
L26704 28678
L26647 28734
L26591 28678
L26647 28622
L26647 28734
" />
<path d="M16023 30570
L17480 32027
" />
<path d="M17480 30570
L16023 32027
" />
<path d="M18436 30652
L19167 30652
L18773 31102
L18942 31102
L19055 31158
L19111 31214
L19167 31327
L19167 31608
L19111 31721
L19055 31777
L18942 31833
L18605 31833
L18492 31777
L18436 31721
" />
<path d="M19673 31721
L19730 31777
L19673 31833
L19617 31777
L19673 31721
L19673 31833
" />
<path d="M20123 30652
L20911 30652
L20404 31833
" />
<path d="M21586 30652
L21698 30652
L21811 30708
L21867 30764
L21923 30877
L21979 31102
L21979 31383
L21923 31608
L21867 31721
L21811 31777
L21698 31833
L21586 31833
L21473 31777
L21417 31721
L21361 31608
L21304 31383
L21304 31102
L21361 30877
L21417 30764
L21473 30708
L21586 30652
" />
<path d="M22485 31833
L22485 31046
" />
<path d="M22485 31158
L22542 31102
L22654 31046
L22823 31046
L22935 31102
L22992 31214
L22992 31833
" />
<path d="M22992 31214
L23048 31102
L23160 31046
L23329 31046
L23442 31102
L23498 31214
L23498 31833
" />
<path d="M24060 31833
L24060 31046
" />
<path d="M24060 31158
L24116 31102
L24229 31046
L24398 31046
L24510 31102
L24566 31214
L24566 31833
" />
<path d="M24566 31214
L24623 31102
L24735 31046
L24904 31046
L25016 31102
L25073 31214
L25073 31833
" />
<path d="M27379 30596
L26366 32114
" />
<path d="M28897 30652
L29010 30652
L29122 30708
L29178 30764
L29235 30877
L29291 31102
L29291 31383
L29235 31608
L29178 31721
L29122 31777
L29010 31833
L28897 31833
L28785 31777
L28728 31721
L28672 31608
L28616 31383
L28616 31102
L28672 30877
L28728 30764
L28785 30708
L28897 30652
" />
<path d="M29797 31721
L29853 31777
L29797 31833
L29741 31777
L29797 31721
L29797 31833
" />
<path d="M30978 31833
L30303 31833
" />
<path d="M30641 31833
L30641 30652
L30528 30821
L30416 30933
L30303 30989
" />
<path d="M31991 31046
L31991 31833
" />
<path d="M31709 30596
L31428 31439
L32159 31439
" />
<path d="M33115 30652
L32890 30652
L32778 30708
L32722 30764
L32609 30933
L32553 31158
L32553 31608
L32609 31721
L32665 31777
L32778 31833
L33003 31833
L33115 31777
L33172 31721
L33228 31608
L33228 31327
L33172 31214
L33115 31158
L33003 31102
L32778 31102
L32665 31158
L32609 31214
L32553 31327
" />
<path d="M33678 30652
L33678 30877
" />
<path d="M34128 30652
L34128 30877
" />
<path d="M35871 32283
L35815 32227
L35703 32058
L35646 31946
L35590 31777
L35534 31496
L35534 31271
L35590 30989
L35646 30821
L35703 30708
L35815 30539
L35871 30483
" />
<path d="M36827 31046
L36827 31833
" />
<path d="M36546 30596
L36265 31439
L36996 31439
" />
<path d="M38346 31833
L38346 30652
" />
<path d="M38852 31833
L38852 31214
L38796 31102
L38683 31046
L38515 31046
L38402 31102
L38346 31158
" />
<path d="M39583 31833
L39471 31777
L39415 31721
L39358 31608
L39358 31271
L39415 31158
L39471 31102
L39583 31046
L39752 31046
L39865 31102
L39921 31158
L39977 31271
L39977 31608
L39921 31721
L39865 31777
L39752 31833
L39583 31833
" />
<path d="M40652 31833
L40539 31777
L40483 31664
L40483 30652
" />
<path d="M41552 31777
L41439 31833
L41214 31833
L41102 31777
L41046 31664
L41046 31214
L41102 31102
L41214 31046
L41439 31046
L41552 31102
L41608 31214
L41608 31327
L41046 31439
" />
<path d="M42058 31777
L42170 31833
L42395 31833
L42508 31777
L42564 31664
L42564 31608
L42508 31496
L42395 31439
L42227 31439
L42114 31383
L42058 31271
L42058 31214
L42114 31102
L42227 31046
L42395 31046
L42508 31102
" />
<path d="M42958 32283
L43014 32227
L43127 32058
L43183 31946
L43239 31777
L43295 31496
L43295 31271
L43239 30989
L43183 30821
L43127 30708
L43014 30539
L42958 30483
" />
<path d="M45095 32283
L45039 32227
L44926 32058
L44870 31946
L44814 31777
L44758 31496
L44758 31271
L44814 30989
L44870 30821
L44926 30708
L45039 30539
L45095 30483
" />
<path d="M45545 31046
L45545 31833
" />
<path d="M45545 31158
L45601 31102
L45714 31046
L45883 31046
L45995 31102
L46051 31214
L46051 31833
" />
<path d="M46782 31833
L46670 31777
L46614 31721
L46557 31608
L46557 31271
L46614 31158
L46670 31102
L46782 31046
L46951 31046
L47064 31102
L47120 31158
L47176 31271
L47176 31608
L47120 31721
L47064 31777
L46951 31833
L46782 31833
" />
<path d="M47514 31046
L47964 31046
" />
<path d="M47682 30652
L47682 31664
L47739 31777
L47851 31833
L47964 31833
" />
<path d="M49257 31046
L49257 32227
" />
<path d="M49257 31102
L49370 31046
L49595 31046
L49707 31102
L49763 31158
L49820 31271
L49820 31608
L49763 31721
L49707 31777
L49595 31833
L49370 31833
L49257 31777
" />
<path d="M50494 31833
L50382 31777
L50326 31664
L50326 30652
" />
<path d="M51451 31833
L51451 31214
L51394 31102
L51282 31046
L51057 31046
L50944 31102
" />
<path d="M51451 31777
L51338 31833
L51057 31833
L50944 31777
L50888 31664
L50888 31552
L50944 31439
L51057 31383
L51338 31383
L51451 31327
" />
<path d="M51844 31046
L52294 31046
" />
<path d="M52013 30652
L52013 31664
L52069 31777
L52182 31833
L52294 31833
" />
<path d="M53138 31777
L53025 31833
L52800 31833
L52688 31777
L52632 31664
L52632 31214
L52688 31102
L52800 31046
L53025 31046
L53138 31102
L53194 31214
L53194 31327
L52632 31439
" />
<path d="M54206 31833
L54206 30652
" />
<path d="M54206 31777
L54094 31833
L53869 31833
L53757 31777
L53700 31721
L53644 31608
L53644 31271
L53700 31158
L53757 31102
L53869 31046
L54094 31046
L54206 31102
" />
<path d="M54656 32283
L54713 32227
L54825 32058
L54881 31946
L54938 31777
L54994 31496
L54994 31271
L54938 30989
L54881 30821
L54825 30708
L54713 30539
L54656 30483
" />
</g> 
</svg>
