M48
;DRILL file {KiCad 4.0.6} date 05/06/17 17:01:00
;FORMAT={-:-/ absolute / inch / decimal}
FMAT,2
INCH,TZ
T1C0.016
T2C0.020
T3C0.025
T4C0.039
%
G90
G05
M72
T1
X2.47Y-2.345
X2.665Y-2.405
T2
X2.645Y-1.99
X3.02Y-2.1
X3.1Y-1.975
X3.1Y-2.025
X3.1Y-2.075
X3.175Y-1.975
X3.175Y-2.025
X3.175Y-2.075
X3.58Y-1.46
X3.58Y-1.52
X3.58Y-1.7
X3.58Y-1.76
X3.64Y-1.46
X3.64Y-1.52
X3.64Y-1.7
X3.64Y-1.76
X3.7Y-1.46
X3.7Y-1.52
X3.7Y-1.7
X3.7Y-1.76
T3
X1.8916Y-1.6522
T4
X2.275Y-2.6
X2.375Y-2.6
X2.475Y-2.6
X2.75Y-1.645
X2.85Y-1.645
X2.95Y-1.645
X3.05Y-2.6
X3.25Y-2.6
T4
X1.9138Y-2.0606G85X1.9138Y-2.1394
G05
X1.9925Y-2.285G85X2.0713Y-2.285
G05
X2.15Y-2.0606G85X2.15Y-2.1394
G05
T0
M30
